<?xml version="1.0" encoding="UTF-8"?>
<svg id="svg5" width="677.33mm" height="381mm" version="1.1" viewBox="0 0 677.33 381" xml:space="preserve" xmlns="http://www.w3.org/2000/svg" xmlns:xlink="http://www.w3.org/1999/xlink"><g id="background"><image id="floor_0_base" width="677.33" height="381" href="/local/floorplans/floor_2_base.png" preserveAspectRatio="none" xlink:href="file:///Users/GFahmy/Documents/projects/Home%20Automation/floorplans_v2/floor_0_base.png"/><image id="floor_1_base" width="677.33" height="381" href="/local/floorplans/floor_1_base.png" preserveAspectRatio="none" xlink:href="file:///Users/GFahmy/Documents/projects/Home%20Automation/floorplans_v2/floor_1_base.png"/><image id="floor_2_base" width="677.33" height="381" href="/local/floorplans/floor_2_base.png" preserveAspectRatio="none" xlink:href="file:///Users/GFahmy/Documents/projects/Home%20Automation/floorplans_v2/floor_2_base.png"/><g id="light_overlays_floor_0"><image id="light_overlay.floor_0_entry_lights" width="677.33" height="381" preserveAspectRatio="none" xlink:href="file:///Users/GFahmy/Documents/projects/Home%20Automation/floorplans_v2/floor_0_entry_lights.png"/><image id="light_overlay.floor_0_guest_lamp" width="677.33" height="381" preserveAspectRatio="none" xlink:href="file:///Users/GFahmy/Documents/projects/Home%20Automation/floorplans_v2/floor_0_guest_lamp.png"/><image id="light_overlay.floor_0_stair_lights" width="677.33" height="381" filter="url(#filter603)" preserveAspectRatio="none" xlink:href="file:///Users/GFahmy/Documents/projects/Home%20Automation/floorplans_v2/floor_0_stair_lights.png"/></g><g id="light_overlays_floor_1"><image id="light_overlay.floor_1_family_room_main" width="677.33" height="381" preserveAspectRatio="none" xlink:href="file:///Users/GFahmy/Documents/projects/Home%20Automation/floorplans_v2/floor_1_family_room_main.png"/><image id="light_overlay.floor_1_kitchen_cabinets" width="677.33" height="381" display="none" preserveAspectRatio="none" xlink:href="file:///Users/GFahmy/Documents/projects/Home%20Automation/floorplans_v2/floor_1_kitchen_cabinets.png"/><image id="light_overlay.floor_1_kitchen_main" width="677.33" height="381" display="none" preserveAspectRatio="none" xlink:href="file:///Users/GFahmy/Documents/projects/Home%20Automation/floorplans_v2/floor_1_kitchen_main.png"/><image id="light_overlay.floor_1_kitchen_sink" width="677.33" height="381" display="none" preserveAspectRatio="none" xlink:href="file:///Users/GFahmy/Documents/projects/Home%20Automation/floorplans_v2/floor_1_kitchen_sink.png"/><image id="light_overlay.floor_1_kitchen_table" width="677.33" height="381" display="none" preserveAspectRatio="none" xlink:href="file:///Users/GFahmy/Documents/projects/Home%20Automation/floorplans_v2/floor_1_kitchen_table.png"/><image id="light_overlay.floor_1_office_lamp" width="677.33" height="381" display="none" preserveAspectRatio="none" xlink:href="file:///Users/GFahmy/Documents/projects/Home%20Automation/floorplans_v2/floor_1_office_lamp.png"/><image id="light_overlay.floor_1_pantry" width="677.33" height="381" display="none" preserveAspectRatio="none" xlink:href="file:///Users/GFahmy/Documents/projects/Home%20Automation/floorplans_v2/floor_1_pantry.png"/></g><g id="light_overlays_floor_2"><image id="light_overlay.floor_2_baby_room" width="677.33" height="381" preserveAspectRatio="none" xlink:href="file:///Users/GFahmy/Documents/projects/Home%20Automation/floorplans_v2/floor_2_baby_room.png"/><image id="light_overlay.floor_2_hallway" width="677.33" height="381" preserveAspectRatio="none" xlink:href="file:///Users/GFahmy/Documents/projects/Home%20Automation/floorplans_v2/floor_2_hallway.png"/><image id="light_overlay.floor_2_left_lamp" width="677.33" height="381" preserveAspectRatio="none" xlink:href="file:///Users/GFahmy/Documents/projects/Home%20Automation/floorplans_v2/floor_2_left_lamp.png"/><image id="light_overlay.floor_2_master_bathroom" width="677.33" height="381" preserveAspectRatio="none" xlink:href="file:///Users/GFahmy/Documents/projects/Home%20Automation/floorplans_v2/floor_2_master_bathroom.png"/><image id="light_overlay.floor_2_master_closet" width="677.33" height="381" preserveAspectRatio="none" xlink:href="file:///Users/GFahmy/Documents/projects/Home%20Automation/floorplans_v2/floor_2_master_closet.png"/><image id="light_overlay.floor_2_master_hallway" width="677.33" height="381" preserveAspectRatio="none" xlink:href="file:///Users/GFahmy/Documents/projects/Home%20Automation/floorplans_v2/floor_2_master_hallway.png"/><image id="light_overlay.floor_2_right_lamp" width="677.33" height="381" preserveAspectRatio="none" xlink:href="file:///Users/GFahmy/Documents/projects/Home%20Automation/floorplans_v2/floor_2_right_lamp.png"/><image id="light_overlay.floor_2_baby_closet" width="677.33" height="381" preserveAspectRatio="none" xlink:href="file:///Users/GFahmy/Documents/projects/Home%20Automation/floorplans_v2/floor_2_baby_closet.png"/></g></g><g id="areas" fill="none" stroke-linecap="square" stroke-linejoin="round" stroke-width=".52917"><g id="floor_0_areas"><path id="floor_0_area.guest_room_path" d="m263.91 331.88 102.24-87.671-54.682-56.479-17.265 13.991-34.722-1.1553-63.282 48.713z" opacity=".89058" stroke="#267ef5" style="paint-order:markers fill stroke"/><path id="floor_0_area.entrance" d="m196.2 249.28 63.282-48.713 34.722 1.1553 57.142-45.605-26.038-25.46 21.948-17.068 2.5968 0.0448 9.447-12.402 10.253-7.3875-18.894-17.237 0.62682-20.909-10.387 7.3427-32.147 44.101-143.05 104.99z" opacity=".89058" stroke="#267ef5" style="paint-order:markers fill stroke"/><path id="floor_0_area.garage" d="m321.82 89.123-22.39-20.909 96.354-68.127 60.461-0.087119 101.58 79.017-151.5 130.42-54.979-53.32-26.038-25.46 21.948-17.068 2.5968 0.0448 9.447-12.402 10.253-7.3875-18.894-17.237 0.62682-20.909-10.387 7.3427z" opacity=".89058" stroke="#2c7ae2" style="paint-order:markers fill stroke"/></g><g id="floor_1_areas" stroke="#267ef5"><path id="floor_1_area.family_room_path" d="m123.66 245.95 106.31-78.759 0.9327 0.64123 14.807 35.792 11.309 12.358-8.5109-23.9 16.031 17.663 9.7934 31.012 43.312 48.326 9.8517-8.3943 1.6905 1.9237-106.27 92.396z" opacity=".89058" style="paint-order:markers fill stroke"/><path id="floor_1_area.kitchen_path" d="m248.51 192.08 16.031 17.663 9.7934 31.012 43.312 48.326 9.8517-8.3943 1.6905 1.9237 6.2741-5.2169 7.2464 7.4396 139.63-122.14-79.703-70.054-1.4796 1.1579-7.6551 42.457-20.328 16.211 3.6668-31.199-15.954-14.796z" opacity=".89058" style="paint-order:markers fill stroke"/><path id="floor_1_area.hallway_path" d="m321.47 99.432 21.959 20.331 17.456-13.299 15.954 14.796-3.6668 31.199 20.328-16.211 7.6551-42.457 1.4796-1.1579 1.0271 0.90276 22.628-17.671-19.829-16.835-22.29 16.945-14.152-12.402z" opacity=".89058" style="paint-order:markers fill stroke"/><path id="floor_1_area.office_path" d="m474.78 156.05 78.713-67.584-71.576-55.804-57.051 44.309-21.207 16.568z" opacity=".89058" style="paint-order:markers fill stroke"/></g><g id="floor_2_areas" stroke="#267ef5"><path id="floor_2_area.master_bedroom_path" d="m113.51 285.21 71.436 95.79h23.786l102.11-88.245 2.0801-1.7184-58.515-65.75 85.375-66.926-25.142-24.781-45.311 34.458-41.696 31.456z" opacity=".89058" style="paint-order:markers fill stroke"/><path id="floor_2_area.master_bathroom_path" d="m310.84 292.75 7.8851 8.3912 116.99-101.88-44.744-42.264-23.555 18.822-22.428-21.301-5.2043 3.843-85.375 66.926 58.515 65.75z" opacity=".89058" style="paint-order:markers fill stroke"/><path id="floor_2_area.hallway_path" d="m246.45 144.07 100.32-73.402 62.387 56.156-50.693 40.495-13.479-12.802-5.2043 3.843-25.142-24.781-45.311 34.458z" opacity=".89058" style="paint-order:markers fill stroke"/><path id="floor_2_area.baby_closet" d="m381.69 102.09 33.179-25.634-34.778-30.089-23.902 17.845 8.4015 7.4897-9.0861 6.8176z" opacity=".89058" style="paint-order:markers fill stroke"/><path id="floor_2_area.baby_room" d="m409.16 126.82 18.065-13.946 45.959 39.869 71.381-61.609-108.49-85.898-55.991 41.131 34.778 30.089-33.179 25.634z" opacity=".89058" style="paint-order:markers fill stroke"/><path id="floor_2_area.laundry" d="m435.71 199.26 45.173-39.399-7.7037-7.1145-45.959-39.869-43.411 34.194-1.5069 1.2038 8.6643 8.7211z" opacity=".89058" style="paint-order:markers fill stroke"/><path id="floor_2_area.master_closet" d="m113.51 285.21-20.617-29.03 112.55-81.906 22.183 25.219z" opacity=".89058" style="paint-order:markers fill stroke"/></g></g><g id="entities"><g id="floor_0_entities"><image id="camera.entrance_fluent" x="318.35" y="135.64" width="15.809" height="15.809" preserveAspectRatio="none" xlink:href="file:///Users/GFahmy/Downloads/rb_79300.png"/><image id="camera.front_door_fluent" x="188.44" y="250.49" width="15.809" height="15.809" preserveAspectRatio="none" xlink:href="file:///Users/GFahmy/Downloads/rb_79300.png"/><image id="camera.garage_fluent" x="431.47" y="3.2695" width="15.809" height="15.809" preserveAspectRatio="none" xlink:href="file:///Users/GFahmy/Downloads/rb_79300.png"/></g><g id="floor_1_entities"><path id="binary_sensor.lg_fridge" d="m335.15 186.75-0.22759-22.988 21.452-17.014 2.902 2.902-1.4794 24.695-9.4457 8.3077-9.6866 6.8282z" fill="none" opacity=".89058" stroke="#267ef5" stroke-linecap="square" stroke-linejoin="round" stroke-width=".52917" style="paint-order:markers fill stroke"/><path id="binary_sensor.stove_hood" d="m289.7 190.86 2.4696 2.2276 17.338-13.255v-0.85681l-2.3688-2.1672z" fill="none" opacity=".89058" stroke="#267ef5" stroke-linecap="square" stroke-linejoin="round" stroke-width=".52917" style="paint-order:markers fill stroke"/><path id="light.kitchen_cabinets" d="m334.66 177-11.03-10.929-15.305 11.819 1.1844 1.0836v0.85681l-17.338 13.255-1.2348-1.1138-22.541 17.89 4.4011 13.937 1.9072 1.9072 23.473-18.411 0.58682 0.58681 17.311-13.203-1.1003-1.328z" fill="none" opacity=".89058" stroke="#267ef5" stroke-linecap="square" stroke-linejoin="round" stroke-width=".52917" style="paint-order:markers fill stroke"/><path id="binary_sensor.whirlpool_dishwasher_on" d="m337.86 211.96 19.424 19.856 0.0345 8.4809 15.624-13.356 1.2145-9.4427-18.565-18.491-3.4033 2.5657-0.6176-0.49215z" fill="none" opacity=".89058" stroke="#267ef5" stroke-linecap="square" stroke-linejoin="round" stroke-width=".52917" style="paint-order:markers fill stroke"/><path id="light.kitchen_table" d="m417.39 216.2 31.179-27.299 2.2438-4.7212-0.9349-0.46745-0.0468 0.18698-6.4976-5.8431 0.32721-0.5142-0.70117-0.4207-0.46744 0.23372-2.5242 5.6094-3.1787 2.7112-4.0668-3.7863 3.0384-2.7112-0.32721-0.28047 2.7112-6.3106-0.6077-0.46745-0.28046 0.23373-6.2638-5.5627 0.0467-0.74792-0.42068-0.37396-0.37397-0.0467-2.6645 6.0768-3.0384 2.6177-10.097-9.3958-7.0585 5.9834-3.4124-2.9449 0.56095-6.0768-0.70118-0.65443-0.43402 0.46745v0.4207l-6.344 5.2354-0.28046-0.28047-0.56094 0.46745-0.37396 6.3573-0.23374 0.42071v0.4207l0.0935 0.28047-0.93491 4.394 0.46747 0.42071 0.93488-3.4591 2.1503 1.9165-2.5242 2.197-1.5426 8.6011 2.4307 2.1035 1.6828-7.2455 6.778 6.5584-4.1136 3.5852-1.0751-0.88815v-0.60769l-0.56094-0.46745-0.7479 0.42071-0.46746 4.0201-0.42072 0.28047 0.32724 0.4207-1.0751 4.9082 0.51419 0.4207 1.0284-4.394 6.404 5.8899-1.0751 4.955 0.51422 0.46745 1.2154-3.8798 5.5159-5.0485 2.6578-2.1267 3.6601 3.4601-4.3611 3.755-1.0939-0.95889 0.0361-0.60574-0.89299-0.0741-0.94087 4.123-0.46744 0.65442 0.42071 0.37396-1.3089 4.8147 0.46744 0.51419 1.5426-4.5343z" fill="none" opacity=".89058" stroke="#267ef5" stroke-linecap="square" stroke-linejoin="round" stroke-width=".52917" style="paint-order:markers fill stroke"/><path id="media_player.samsung_q80aa_65_tv" d="m169.65 247.15 6.4294 7.5356 35.397-27.239-4.8508-8.4927z" fill="none" opacity=".89058" stroke="#267ef5" stroke-linecap="square" stroke-linejoin="round" stroke-width=".52917" style="paint-order:markers fill stroke"/><path id="light.office_lamp" d="m452.85 82.383c0.7698 3.7075 2.4695 4.5791 4.9059 5.046 2.4033-6.81e-4 4.8532 0.25131 6.6229-3.1888 0.23432-0.61907 0.21663-1.2381 0.17521-1.8572l-1.8222-4.6255c-0.64763-0.74236-1.1611-1.6189-2.523-1.647-1.227 0.07716-2.728 0.23292-3.3991 1.0513l-2.488 1.5418c-1.4446 1.1322-1.5664 2.4579-1.4718 3.6794z" fill="none" opacity=".89058" stroke="#267ef5" stroke-linecap="square" stroke-linejoin="round" stroke-width=".52917" style="paint-order:markers fill stroke"/><path id="binary_sensor.microwave" d="m370.4 141.52-0.97164 9.1544-10.738 8.81 0.5455-9.1058z" fill="none" opacity=".89058" stroke="#2c7ae2" stroke-linecap="square" stroke-linejoin="round" stroke-width=".52917" style="paint-order:markers fill stroke"/><path id="light.kitchen_sink" d="m313.85 234.42 9.7435 10.652 25.019-20.891-10.156-10.404z" fill="none" opacity=".89058" stroke="#2c7ae2" stroke-linecap="square" stroke-linejoin="round" stroke-width=".52917" style="paint-order:markers fill stroke"/><image id="camera.office_camera_fluent" x="466.05" y="139.1" width="15.809" height="15.809" preserveAspectRatio="none" xlink:href="file:///Users/GFahmy/Downloads/rb_79300.png"/><image id="camera.family_room_fluent" x="216.11" y="355.23" width="15.809" height="15.809" preserveAspectRatio="none" xlink:href="file:///Users/GFahmy/Downloads/rb_79300.png"/></g><g id="floor_2_entities"><path id="light.left_lamp" d="m223.21 376.34 3.1913 1.8692 0.25083 0.77501v2.0136l-8.5937 0.26458z" fill="none" opacity=".89058" stroke="#267ef5" stroke-linecap="square" stroke-linejoin="round" stroke-width=".52917" style="paint-order:markers fill stroke"/><path id="light.right_lamp" d="m294.37 314.8 0.4559 0.91178 0.27353 0.68384 0.31911 1.0486 0.18238 0.91178 0.13676 0.86622 0.0456 0.72943v0.41032l-7.1576 6.337-2.8722-0.54708-1.3677-3.0089z" fill="none" opacity=".89058" stroke="#267ef5" stroke-linecap="square" stroke-linejoin="round" stroke-width=".52917" style="paint-order:markers fill stroke"/><path id="binary_sensor.washing_machine" d="m419.66 174.56 17.185-14.552-17.601-16.077-17.255 13.998-1.1087 5.2665 17.255 16.7z" fill="none" opacity=".89058" stroke="#267ef5" stroke-linecap="square" stroke-linejoin="round" stroke-width=".52917" style="paint-order:markers fill stroke"/><image id="camera.baby_room_fluent" x="521.77" y="84.625" width="15.809" height="15.809" preserveAspectRatio="none" xlink:href="file:///Users/GFahmy/Downloads/rb_79300.png"/></g></g></svg>
