<?xml version="1.0" encoding="UTF-8" standalone="no"?>
<!-- Created with Inkscape (http://www.inkscape.org/) -->

<svg
   width="677.33331mm"
   height="381mm"
   viewBox="0 0 677.33331 381"
   version="1.1"
   id="svg5"
   xml:space="preserve"
   inkscape:version="1.2.2 (b0a84865, 2022-12-01)"
   sodipodi:docname="floorplanV2.svg"
   xmlns:inkscape="http://www.inkscape.org/namespaces/inkscape"
   xmlns:sodipodi="http://sodipodi.sourceforge.net/DTD/sodipodi-0.dtd"
   xmlns:xlink="http://www.w3.org/1999/xlink"
   xmlns="http://www.w3.org/2000/svg"
   xmlns:svg="http://www.w3.org/2000/svg"><sodipodi:namedview
     id="namedview7"
     pagecolor="#ffffff"
     bordercolor="#000000"
     borderopacity="0.25"
     inkscape:showpageshadow="2"
     inkscape:pageopacity="0.0"
     inkscape:pagecheckerboard="0"
     inkscape:deskcolor="#d1d1d1"
     inkscape:document-units="mm"
     showgrid="false"
     inkscape:zoom="0.29402792"
     inkscape:cx="896.17338"
     inkscape:cy="794.14226"
     inkscape:window-width="1624"
     inkscape:window-height="997"
     inkscape:window-x="56"
     inkscape:window-y="25"
     inkscape:window-maximized="1"
     inkscape:current-layer="areas" /><defs
     id="defs4975"><inkscape:perspective
       sodipodi:type="inkscape:persp3d"
       inkscape:vp_x="364.04398 : 263.62635 : 1"
       inkscape:vp_y="-692.15224 : -906.37889 : 0"
       inkscape:vp_z="340.30358 : 279.23965 : 1"
       inkscape:persp3d-origin="396.12547 : 328.98809 : 1"
       id="perspective7163" /></defs><g
     inkscape:label="background"
     inkscape:groupmode="layer"
     id="background"><image
       width="677.33331"
       height="381"
       preserveAspectRatio="none"
       xlink:href="../floorplans_v2/floor_0_base.png"
       id="floor_0_base"
       x="0"
       y="0"
       inkscape:label="floor_0_base"
       href="/local/floorplans/floor_2_base.png"
       style="display:inline" /><image
       width="677.33331"
       height="381"
       preserveAspectRatio="none"
       xlink:href="../floorplans_v2/floor_1_base.png"
       id="floor_1_base"
       x="0"
       y="0"
       inkscape:label="floor_1_base"
       href="/local/floorplans/floor_1_base.png"
       style="display:inline" /><image
       width="677.33331"
       height="381"
       preserveAspectRatio="none"
       xlink:href="../floorplans_v2/floor_2_base.png"
       id="floor_2_base"
       x="0"
       y="0"
       inkscape:label="floor_2_base"
       href="/local/floorplans/floor_2_base.png"
       style="display:inline" /><g
       inkscape:groupmode="layer"
       id="light_overlays_floor_0"
       inkscape:label="light_overlays_floor_0"
       style="display:inline"><image
         width="677.33331"
         height="381"
         preserveAspectRatio="none"
         xlink:href="../floorplans_v2/floor_0_entry_lights.png"
         id="light_overlay.floor_0_entry_lights"
         x="0"
         y="0"
         inkscape:label="floor_0_entry_lights"
         style="display:inline" /><image
         width="677.33331"
         height="381"
         preserveAspectRatio="none"
         xlink:href="../floorplans_v2/floor_0_guest_lamp.png"
         id="light_overlay.floor_0_guest_lamp"
         x="0"
         y="0"
         inkscape:label="floor_0_guest_lamp"
         style="display:inline" /><image
         width="677.33331"
         height="381"
         preserveAspectRatio="none"
         xlink:href="../floorplans_v2/floor_0_stair_lights.png"
         id="light_overlay.floor_0_stair_lights"
         x="0"
         y="0"
         inkscape:label="floor_0_stair_lights"
         style="display:inline;filter:url(#filter603)" /></g><g
       inkscape:groupmode="layer"
       id="light_overlays_floor_1"
       inkscape:label="light_overlays_floor_1"
       style="display:inline"><image
         width="677.33331"
         height="381"
         preserveAspectRatio="none"
         xlink:href="../floorplans_v2/floor_1_family_room_main.png"
         id="light_overlay.floor_1_family_room_main"
         x="0"
         y="0"
         inkscape:label="floor_1_family_room_main" /><image
         width="677.33331"
         height="381"
         preserveAspectRatio="none"
         xlink:href="../floorplans_v2/floor_1_kitchen_cabinets.png"
         id="light_overlay.floor_1_kitchen_cabinets"
         x="0"
         y="0"
         inkscape:label="floor_1_kitchen_cabinets"
         style="display:none" /><image
         width="677.33331"
         height="381"
         preserveAspectRatio="none"
         xlink:href="../floorplans_v2/floor_1_kitchen_main.png"
         id="light_overlay.floor_1_kitchen_main"
         x="0"
         y="0"
         inkscape:label="floor_1_kitchen_main"
         style="display:none" /><image
         width="677.33331"
         height="381"
         preserveAspectRatio="none"
         xlink:href="../floorplans_v2/floor_1_kitchen_sink.png"
         id="light_overlay.floor_1_kitchen_sink"
         x="0"
         y="0"
         inkscape:label="floor_1_kitchen_sink"
         style="display:none" /><image
         width="677.33331"
         height="381"
         preserveAspectRatio="none"
         xlink:href="../floorplans_v2/floor_1_kitchen_table.png"
         id="light_overlay.floor_1_kitchen_table"
         x="0"
         y="0"
         inkscape:label="floor_1_kitchen_table"
         style="display:none" /><image
         width="677.33331"
         height="381"
         preserveAspectRatio="none"
         xlink:href="../floorplans_v2/floor_1_office_lamp.png"
         id="light_overlay.floor_1_office_lamp"
         x="0"
         y="0"
         inkscape:label="floor_1_office_lamp"
         style="display:none" /><image
         width="677.33331"
         height="381"
         preserveAspectRatio="none"
         xlink:href="../floorplans_v2/floor_1_pantry.png"
         id="light_overlay.floor_1_pantry"
         x="0"
         y="0"
         inkscape:label="floor_1_pantry"
         style="display:none" /></g><g
       inkscape:groupmode="layer"
       id="light_overlays_floor_2"
       inkscape:label="light_overlays_floor_2"
       style="display:inline"><image
         width="677.33331"
         height="381"
         preserveAspectRatio="none"
         xlink:href="../floorplans_v2/floor_2_baby_room.png"
         id="light_overlay.floor_2_baby_room"
         x="0"
         y="0"
         inkscape:label="floor_2_baby_room"
         style="display:inline" /><image
         width="677.33331"
         height="381"
         preserveAspectRatio="none"
         xlink:href="../floorplans_v2/floor_2_hallway.png"
         id="light_overlay.floor_2_hallway"
         x="0"
         y="0"
         inkscape:label="floor_2_hallway" /><image
         width="677.33331"
         height="381"
         preserveAspectRatio="none"
         xlink:href="../floorplans_v2/floor_2_left_lamp.png"
         id="light_overlay.floor_2_left_lamp"
         x="0"
         y="0"
         inkscape:label="floor_2_left_lamp" /><image
         width="677.33331"
         height="381"
         preserveAspectRatio="none"
         xlink:href="../floorplans_v2/floor_2_master_bathroom.png"
         id="light_overlay.floor_2_master_bathroom"
         x="0"
         y="0"
         inkscape:label="floor_2_master_bathroom" /><image
         width="677.33331"
         height="381"
         preserveAspectRatio="none"
         xlink:href="../floorplans_v2/floor_2_master_closet.png"
         id="light_overlay.floor_2_master_closet"
         x="0"
         y="0"
         inkscape:label="floor_2_master_closet" /><image
         width="677.33331"
         height="381"
         preserveAspectRatio="none"
         xlink:href="../floorplans_v2/floor_2_master_hallway.png"
         id="light_overlay.floor_2_master_hallway"
         x="0"
         y="0"
         inkscape:label="floor_2_master_hallway" /><image
         width="677.33331"
         height="381"
         preserveAspectRatio="none"
         xlink:href="../floorplans_v2/floor_2_right_lamp.png"
         id="light_overlay.floor_2_right_lamp"
         x="0"
         y="0"
         inkscape:label="floor_2_right_lamp" /><image
         width="677.33331"
         height="381"
         preserveAspectRatio="none"
         xlink:href="../floorplans_v2/floor_2_baby_closet.png"
         id="light_overlay.floor_2_baby_closet"
         x="0"
         y="0"
         inkscape:label="floor_2_baby_closet"
         style="display:inline" /></g></g><g
     inkscape:groupmode="layer"
     id="areas"
     inkscape:label="areas"
     style="display:inline"><g
       inkscape:groupmode="layer"
       id="floor_0_areas"
       inkscape:label="floor_0_areas"
       style="display:inline"><path
         style="opacity:0.890577;fill:none;fill-rule:evenodd;stroke:#267ef5;stroke-width:0.529167;stroke-linecap:square;stroke-linejoin:round;stroke-dasharray:none;paint-order:markers fill stroke"
         d="m 263.91088,331.87819 102.2398,-87.67078 -54.68194,-56.47898 -17.26459,13.99139 -34.72174,-1.15526 -63.28213,48.71313 z"
         id="floor_0_area.guest_room_path"
         inkscape:label="guest_room" /><path
         style="opacity:0.890577;fill:none;fill-rule:evenodd;stroke:#267ef5;stroke-width:0.529167;stroke-linecap:square;stroke-linejoin:round;stroke-dasharray:none;paint-order:markers fill stroke"
         d="m 196.20028,249.27769 63.28213,-48.71313 34.72174,1.15526 57.14169,-45.60469 -26.03847,-25.45984 21.94754,-17.06765 2.5968,0.0448 9.44698,-12.40196 10.25289,-7.387452 -18.89397,-17.237382 0.62682,-20.908722 -10.3872,7.342677 -32.14661,44.100839 -143.04788,104.99133 z"
         id="floor_0_area.entrance"
         inkscape:label="entrance"
         sodipodi:nodetypes="ccccccccccccccc" /><path
         style="opacity:0.890577;fill:none;fill-rule:evenodd;stroke:#2c7ae2;stroke-width:0.529167;stroke-linecap:square;stroke-linejoin:round;stroke-dasharray:none;stroke-opacity:1;paint-order:markers fill stroke"
         d="M 321.81887,89.123093 299.42919,68.214448 395.78319,0.08711935 456.24403,0 557.82519,79.017248 406.32464,209.43491 l -54.9788,-53.31978 -26.03847,-25.45984 21.94754,-17.06765 2.5968,0.0448 9.44698,-12.40196 10.25289,-7.387453 -18.89397,-17.237382 0.62682,-20.908721 -10.3872,7.342676 z"
         id="floor_0_area.garage"
         inkscape:label="garage" /></g><g
       inkscape:groupmode="layer"
       id="floor_1_areas"
       inkscape:label="floor_1_areas"
       style="display:inline"><path
         style="opacity:0.890577;fill:none;fill-rule:evenodd;stroke:#267ef5;stroke-width:0.529167;stroke-linecap:square;stroke-linejoin:round;stroke-dasharray:none;paint-order:markers fill stroke"
         d="m 123.65991,245.94582 106.30957,-78.75888 0.9327,0.64123 14.80666,35.79246 11.30901,12.35831 -8.51091,-23.9005 16.03083,17.66305 9.79337,31.01236 43.31239,48.32566 9.85166,-8.39433 1.69053,1.92371 -106.2698,92.39583 z"
         id="floor_1_area.family_room_path"
         inkscape:label="family_room" /><path
         style="opacity:0.890577;fill:none;fill-rule:evenodd;stroke:#267ef5;stroke-width:0.529167;stroke-linecap:square;stroke-linejoin:round;stroke-dasharray:none;paint-order:markers fill stroke"
         d="m 248.50694,192.07844 16.03083,17.66305 9.79337,31.01236 43.31239,48.32566 9.85166,-8.39433 1.69053,1.92371 6.27409,-5.21687 7.24638,7.43963 139.6306,-122.14431 -79.7033,-70.053975 -1.47955,1.157917 -7.65513,42.456958 -20.32789,16.21084 3.66676,-31.19943 -15.95353,-14.79561 z"
         id="floor_1_area.kitchen_path"
         inkscape:label="kitchen" /><path
         style="opacity:0.890577;fill:none;fill-rule:evenodd;stroke:#267ef5;stroke-width:0.529167;stroke-linecap:square;stroke-linejoin:round;stroke-dasharray:none;paint-order:markers fill stroke"
         d="m 321.4692,99.432364 21.9589,20.330546 17.45605,-13.29887 15.95353,14.79561 -3.66676,31.19943 20.32789,-16.21084 7.65513,-42.456958 1.47955,-1.157917 1.02711,0.90276 22.62764,-17.671129 -19.82866,-16.834734 -22.28982,16.944862 -14.15218,-12.401702 z"
         id="floor_1_area.hallway_path"
         inkscape:label="hallway"
         sodipodi:nodetypes="cccccccccccccc" /><path
         style="opacity:0.890577;fill:none;fill-rule:evenodd;stroke:#267ef5;stroke-width:0.529167;stroke-linecap:square;stroke-linejoin:round;stroke-dasharray:none;paint-order:markers fill stroke"
         d="M 474.78166,156.04687 553.49425,88.463077 481.91803,32.659333 424.86743,76.968492 403.6606,93.536125 Z"
         id="floor_1_area.office_path"
         sodipodi:nodetypes="cccccc"
         inkscape:label="office" /></g><g
       inkscape:groupmode="layer"
       id="floor_2_areas"
       inkscape:label="floor_2_areas"
       style="display:inline"><path
         style="opacity:0.890577;fill:none;fill-rule:evenodd;stroke:#267ef5;stroke-width:0.529167;stroke-linecap:square;stroke-linejoin:round;stroke-dasharray:none;paint-order:markers fill stroke"
         d="M 113.51401,285.21022 184.95008,381 h 23.78576 l 102.10692,-88.24527 2.08013,-1.71836 -58.51478,-65.74999 85.37549,-66.9257 -25.14235,-24.78059 -45.31053,34.45769 -41.69636,31.45585 z"
         id="floor_2_area.master_bedroom_path"
         inkscape:label="master_bedroom"
         sodipodi:nodetypes="ccccccccccc" /><path
         style="opacity:0.890577;fill:none;fill-rule:evenodd;stroke:#267ef5;stroke-width:0.529167;stroke-linecap:square;stroke-linejoin:round;stroke-dasharray:none;paint-order:markers fill stroke"
         d="m 310.84276,292.75473 7.88506,8.39121 116.98711,-101.88469 -44.74364,-42.26413 -23.55519,18.82162 -22.42817,-21.30111 -5.20433,3.84305 -85.37549,66.9257 58.51478,65.74999 z"
         id="floor_2_area.master_bathroom_path"
         inkscape:label="master_bathroom" /><path
         style="opacity:0.890577;fill:none;fill-rule:evenodd;stroke:#267ef5;stroke-width:0.529167;stroke-linecap:square;stroke-linejoin:round;stroke-dasharray:none;paint-order:markers fill stroke"
         d="M 246.44938,144.07114 346.774,70.669406 l 62.38666,56.155574 -50.69345,40.49456 -13.47928,-12.80191 -5.20433,3.84305 -25.14235,-24.78059 -45.31053,34.45769 z"
         id="floor_2_area.hallway_path"
         inkscape:label="hallway" /><path
         style="opacity:0.890577;fill:none;fill-rule:evenodd;stroke:#267ef5;stroke-width:0.529167;stroke-linecap:square;stroke-linejoin:round;stroke-dasharray:none;paint-order:markers fill stroke"
         d="m 381.68564,102.09412 33.17851,-25.634073 -34.77826,-30.089048 -23.90191,17.845021 8.4015,7.489698 -9.08613,6.817569 z"
         id="floor_2_area.baby_closet"
         inkscape:label="baby_closet" /><path
         style="opacity:0.890577;fill:none;fill-rule:evenodd;stroke:#267ef5;stroke-width:0.529167;stroke-linecap:square;stroke-linejoin:round;stroke-dasharray:none;paint-order:markers fill stroke"
         d="m 409.16066,126.82498 18.06464,-13.94629 45.95878,39.8687 L 544.56533,91.138567 436.07714,5.2402906 380.08589,46.370999 414.86415,76.460045 381.68564,102.09412 Z"
         id="floor_2_area.baby_room"
         inkscape:label="baby_room" /><path
         style="opacity:0.890577;fill:none;fill-rule:evenodd;stroke:#267ef5;stroke-width:0.529167;stroke-linecap:square;stroke-linejoin:round;stroke-dasharray:none;paint-order:markers fill stroke"
         d="m 435.71493,199.26125 45.17281,-39.39935 -7.70366,-7.11451 -45.95878,-39.8687 -43.41138,34.19357 -1.50691,1.20375 8.66428,8.72111 z"
         id="floor_2_area.laundry"
         inkscape:label="laundry" /><path
         style="opacity:0.890577;fill:none;fill-rule:evenodd;stroke:#267ef5;stroke-width:0.529167;stroke-linecap:square;stroke-linejoin:round;stroke-dasharray:none;paint-order:markers fill stroke"
         d="M 113.51401,285.21022 92.897009,256.18014 205.4514,174.27436 l 22.18296,25.21927 z"
         id="floor_2_area.master_closet"
         inkscape:label="master_closet" /></g></g><g
     inkscape:groupmode="layer"
     id="entities"
     inkscape:label="entities"
     style="display:inline"><g
       inkscape:groupmode="layer"
       id="floor_0_entities"
       inkscape:label="floor_0_entities"
       style="display:inline"><image
         width="15.809491"
         height="15.809491"
         preserveAspectRatio="none"
         xlink:href="../../../../Downloads/rb_79300.png"
         id="camera.entrance_fluent"
         x="318.34634"
         y="135.6376"
         inkscape:label="entry_camera"
         style="display:inline" /><image
         width="15.809491"
         height="15.809491"
         preserveAspectRatio="none"
         xlink:href="../../../../Downloads/rb_79300.png"
         id="camera.front_door_fluent"
         x="188.43596"
         y="250.49184"
         inkscape:label="front_door_camera"
         style="display:inline" /><image
         width="15.809491"
         height="15.809491"
         preserveAspectRatio="none"
         xlink:href="../../../../Downloads/rb_79300.png"
         id="camera.garage_fluent"
         x="431.46634"
         y="3.2694929"
         inkscape:label="garage_camera"
         style="display:inline" /></g><g
       inkscape:groupmode="layer"
       id="floor_1_entities"
       inkscape:label="floor_1_entities"
       style="display:inline"><path
         style="opacity:0.890577;fill:none;fill-rule:evenodd;stroke:#267ef5;stroke-width:0.529167;stroke-linecap:square;stroke-linejoin:round;stroke-dasharray:none;paint-order:markers fill stroke"
         d="m 335.15196,186.75192 -0.22759,-22.98836 21.45199,-17.01365 2.90201,2.90199 -1.47945,24.69541 -9.4457,8.30767 -9.68656,6.82822 z"
         id="binary_sensor.lg_fridge"
         inkscape:label="fridge" /><path
         style="opacity:0.890577;fill:none;fill-rule:evenodd;stroke:#267ef5;stroke-width:0.529167;stroke-linecap:square;stroke-linejoin:round;stroke-dasharray:none;paint-order:markers fill stroke"
         d="m 289.70163,190.85643 2.46962,2.22758 17.33772,-13.25531 v -0.85681 l -2.36881,-2.16722 z"
         id="binary_sensor.stove_hood"
         inkscape:label="stove_hood" /><path
         style="opacity:0.890577;fill:none;fill-rule:evenodd;stroke:#267ef5;stroke-width:0.529167;stroke-linecap:square;stroke-linejoin:round;stroke-dasharray:none;paint-order:markers fill stroke"
         d="m 334.65979,176.99871 -11.03014,-10.92947 -15.30509,11.81904 1.18441,1.08361 v 0.85681 l -17.33772,13.25531 -1.23481,-1.11379 -22.54097,17.89025 4.40114,13.93691 1.90716,1.90715 23.47267,-18.41138 0.58682,0.58681 17.31111,-13.20338 -1.10027,-1.328 z"
         id="light.kitchen_cabinets"
         inkscape:label="kitchen_cabinets" /><path
         style="opacity:0.890577;fill:none;fill-rule:evenodd;stroke:#267ef5;stroke-width:0.529167;stroke-linecap:square;stroke-linejoin:round;stroke-dasharray:none;paint-order:markers fill stroke"
         d="m 337.85603,211.95675 19.42407,19.85649 0.0345,8.48093 15.62431,-13.35576 1.2145,-9.4427 -18.56452,-18.49085 -3.40328,2.5657 -0.6176,-0.49215 z"
         id="binary_sensor.whirlpool_dishwasher_on"
         inkscape:label="dishwasher"
         sodipodi:nodetypes="ccccccccc" /><path
         style="opacity:0.890577;fill:none;fill-rule:evenodd;stroke:#267ef5;stroke-width:0.529167;stroke-linecap:square;stroke-linejoin:round;stroke-dasharray:none;paint-order:markers fill stroke"
         d="m 417.38608,216.19562 31.17892,-27.29908 2.24377,-4.72125 -0.9349,-0.46745 -0.0468,0.18698 -6.49756,-5.84312 0.32721,-0.5142 -0.70117,-0.4207 -0.46744,0.23372 -2.52424,5.6094 -3.17867,2.71121 -4.06681,-3.78634 3.03842,-2.71121 -0.32721,-0.28047 2.71122,-6.31058 -0.6077,-0.46745 -0.28046,0.23373 -6.26382,-5.56266 0.0467,-0.74792 -0.42068,-0.37396 -0.37397,-0.0467 -2.66446,6.07685 -3.03842,2.61772 -10.09692,-9.39575 -7.0585,5.98336 -3.41239,-2.94493 0.56095,-6.07685 -0.70118,-0.65443 -0.43402,0.46745 v 0.4207 l -6.34402,5.23544 -0.28046,-0.28047 -0.56094,0.46745 -0.37396,6.35732 -0.23374,0.42071 v 0.4207 l 0.0935,0.28047 -0.93491,4.39403 0.46747,0.42071 0.93488,-3.45913 2.15027,1.91654 -2.52423,2.19702 -1.54258,8.60108 2.43073,2.10352 1.68283,-7.24547 6.77801,6.55843 -4.11355,3.58523 -1.07514,-0.88815 v -0.60769 l -0.56094,-0.46745 -0.7479,0.42071 -0.46746,4.02007 -0.42072,0.28047 0.32724,0.4207 -1.07513,4.90823 0.51419,0.4207 1.02838,-4.39403 6.40405,5.88987 -1.07513,4.95497 0.51422,0.46745 1.21536,-3.87983 5.5159,-5.04846 2.65785,-2.1267 3.66009,3.46009 -4.36114,3.75503 -1.0939,-0.95889 0.0361,-0.60574 -0.89299,-0.0741 -0.94087,4.12297 -0.46744,0.65442 0.42071,0.37396 -1.30887,4.81474 0.46744,0.51419 1.5426,-4.53426 z"
         id="light.kitchen_table"
         sodipodi:nodetypes="ccccccccccccccccccccccccccccccccccccccccccccccccccccccccccccccccccccccccccc"
         inkscape:label="kitchen_table" /><path
         style="opacity:0.890577;fill:none;fill-rule:evenodd;stroke:#267ef5;stroke-width:0.529167;stroke-linecap:square;stroke-linejoin:round;stroke-dasharray:none;paint-order:markers fill stroke"
         d="m 169.6544,247.15341 6.42944,7.53559 35.39652,-27.23873 -4.85076,-8.49274 z"
         id="media_player.samsung_q80aa_65_tv"
         inkscape:label="samsung" /><path
         style="opacity:0.890577;fill:none;fill-rule:evenodd;stroke:#267ef5;stroke-width:0.529167;stroke-linecap:square;stroke-linejoin:round;stroke-dasharray:none;paint-order:markers fill stroke"
         d="m 452.84619,82.383454 c 0.7698,3.707538 2.46947,4.579085 4.90586,5.04603 2.40332,-6.81e-4 4.85318,0.251314 6.62291,-3.188811 0.23432,-0.619073 0.21663,-1.238146 0.17521,-1.857219 l -1.82218,-4.625527 c -0.64763,-0.742361 -1.16114,-1.618851 -2.52302,-1.646968 -1.227,0.07716 -2.72795,0.232916 -3.39906,1.051257 l -2.48797,1.541842 c -1.44459,1.132157 -1.56635,2.45794 -1.47175,3.679396 z"
         id="light.office_lamp"
         sodipodi:nodetypes="ccccccccc"
         inkscape:label="office_lamp" /><path
         style="opacity:0.890577;fill:none;fill-rule:evenodd;stroke:#2c7ae2;stroke-width:0.529167;stroke-linecap:square;stroke-linejoin:round;stroke-dasharray:none;stroke-opacity:1;paint-order:markers fill stroke"
         d="m 370.39853,141.52268 -0.97164,9.15437 -10.73773,8.81005 0.5455,-9.10581 z"
         id="binary_sensor.microwave"
         sodipodi:nodetypes="ccccc"
         inkscape:label="microwave" /><path
         style="opacity:0.890577;fill:none;fill-rule:evenodd;stroke:#2c7ae2;stroke-width:0.529167;stroke-linecap:square;stroke-linejoin:round;stroke-dasharray:none;stroke-opacity:1;paint-order:markers fill stroke"
         d="m 313.85491,234.42096 9.74347,10.65175 25.01921,-20.89063 -10.15632,-10.40403 z"
         id="light.kitchen_sink"
         inkscape:label="sink" /><image
         width="15.809491"
         height="15.809491"
         preserveAspectRatio="none"
         xlink:href="../../../../Downloads/rb_79300.png"
         id="camera.office_camera_fluent"
         x="466.04895"
         y="139.10222"
         inkscape:label="office_camera" /><image
         width="15.809491"
         height="15.809491"
         preserveAspectRatio="none"
         xlink:href="../../../../Downloads/rb_79300.png"
         id="camera.family_room_fluent"
         x="216.11424"
         y="355.22751"
         style="display:inline"
         inkscape:label="family_room_camera" /></g><g
       inkscape:groupmode="layer"
       id="floor_2_entities"
       inkscape:label="floor_2_entities"
       style="display:inline"><path
         style="opacity:0.890577;fill:none;fill-rule:evenodd;stroke:#267ef5;stroke-width:0.529167;stroke-linecap:square;stroke-linejoin:round;stroke-dasharray:none;paint-order:markers fill stroke"
         d="m 223.2067,376.34219 3.19127,1.86918 0.25083,0.77501 V 379.80699 381 l -8.59372,0.26458 z"
         id="light.left_lamp"
         inkscape:label="left_lamp" /><path
         style="opacity:0.890577;fill:none;fill-rule:evenodd;stroke:#267ef5;stroke-width:0.529167;stroke-linecap:square;stroke-linejoin:round;stroke-dasharray:none;paint-order:markers fill stroke"
         d="m 294.37208,314.79622 0.4559,0.91178 0.27353,0.68384 0.31911,1.04857 0.18238,0.91178 0.13676,0.86622 0.0456,0.72943 v 0.41032 l -7.15756,6.33695 -2.87216,-0.54708 -1.36768,-3.00892 z"
         id="light.right_lamp"
         inkscape:label="right_lamp" /><path
         style="opacity:0.890577;fill:none;fill-rule:evenodd;stroke:#267ef5;stroke-width:0.529167;stroke-linecap:square;stroke-linejoin:round;stroke-dasharray:none;paint-order:markers fill stroke"
         d="m 419.6585,174.55742 17.18548,-14.55222 -17.60127,-16.07675 -17.25477,13.99786 -1.10874,5.26652 17.25477,16.70041 z"
         id="binary_sensor.washing_machine"
         inkscape:label="washing_machine" /><image
         width="15.809491"
         height="15.809491"
         preserveAspectRatio="none"
         xlink:href="../../../../Downloads/rb_79300.png"
         id="camera.baby_room_fluent"
         x="521.76831"
         y="84.625038"
         inkscape:label="baby_room_camera"
         style="display:inline" /></g></g></svg>
