<?xml version="1.0" encoding="UTF-8" standalone="no"?>
<svg
   id="svg5"
   width="1920"
   height="1080"
   version="1.1"
   viewBox="0 0 1920 1080"
   xml:space="preserve"
   sodipodi:docname="floorplan.svg"
   inkscape:version="1.2.2 (b0a84865, 2022-12-01)"
   xmlns:inkscape="http://www.inkscape.org/namespaces/inkscape"
   xmlns:sodipodi="http://sodipodi.sourceforge.net/DTD/sodipodi-0.dtd"
   xmlns:xlink="http://www.w3.org/1999/xlink"
   xmlns="http://www.w3.org/2000/svg"
   xmlns:svg="http://www.w3.org/2000/svg"><defs
     id="defs64"><filter
       inkscape:collect="always"
       style="color-interpolation-filters:sRGB"
       id="filter8319"
       x="-0.35972911"
       y="-0.37985568"
       width="1.7194583"
       height="1.7597114"><feGaussianBlur
         inkscape:collect="always"
         stdDeviation="7.2509372"
         id="feGaussianBlur8321" /></filter></defs><sodipodi:namedview
     id="namedview62"
     pagecolor="#ffffff"
     bordercolor="#000000"
     borderopacity="0.25"
     inkscape:showpageshadow="2"
     inkscape:pageopacity="0.0"
     inkscape:pagecheckerboard="0"
     inkscape:deskcolor="#d1d1d1"
     showgrid="false"
     inkscape:zoom="1.3723663"
     inkscape:cx="888.61116"
     inkscape:cy="815.74431"
     inkscape:window-width="1622"
     inkscape:window-height="997"
     inkscape:window-x="58"
     inkscape:window-y="25"
     inkscape:window-maximized="1"
     inkscape:current-layer="area.guest_room" /><g
     id="background"
     inkscape:groupmode="layer"><image
       id="main-background"
       width="1920"
       height="1080"
       href="/local/floorplans/floorplan.png"
       preserveAspectRatio="none"
       xlink:href="floorplan.png" /><g
       id="light-overlays"
       inkscape:groupmode="layer"
       style="display:none"><image
         id="light_overlay.entrance_main"
         width="1920"
         height="1080"
         href="/local/floorplans/floorplan0001.png"
         preserveAspectRatio="none"
         xlink:href="floorplan0001.png"
         style="display:inline" /><image
         id="light_overlay.entrance_stairs"
         width="1920"
         height="1080"
         href="/local/floorplans/floorplan0002.png"
         preserveAspectRatio="none"
         xlink:href="floorplan0002.png"
         style="display:inline" /><image
         id="light_overlay.family_room_main"
         width="1920"
         height="1080"
         href="/local/floorplans/floorplan0003.png"
         preserveAspectRatio="none"
         xlink:href="floorplan0003.png"
         style="display:inline" /><image
         id="light_overlay.kitchen_main"
         width="1920"
         height="1080"
         href="/local/floorplans/floorplan0004.png"
         preserveAspectRatio="none"
         xlink:href="floorplan0004.png"
         style="display:inline" /><image
         id="light_overlay.kitchen_table"
         width="1920"
         height="1080"
         href="/local/floorplans/floorplan0005.png"
         preserveAspectRatio="none"
         xlink:href="floorplan0005.png"
         style="display:inline" /><image
         id="light_overlay.kitchen_cabinet"
         width="1920"
         height="1080"
         href="/local/floorplans/floorplan0006.png"
         preserveAspectRatio="none"
         xlink:href="floorplan0006.png"
         style="display:inline" /><image
         id="light_overlay.office_floor_lamp"
         width="1920"
         height="1080"
         href="/local/floorplans/floorplan0007.png"
         preserveAspectRatio="none"
         xlink:href="floorplan0007.png"
         style="display:inline" /><image
         id="light_overlay.office_desk_lamp"
         width="1920"
         height="1080"
         href="/local/floorplans/floorplan0008.png"
         preserveAspectRatio="none"
         xlink:href="floorplan0008.png"
         style="display:inline" /><image
         id="light_overlay.master_bed_closet"
         width="1920"
         height="1080"
         href="/local/floorplans/floorplan0009.png"
         preserveAspectRatio="none"
         xlink:href="floorplan0009.png"
         style="display:inline" /><image
         id="light_overlay.master_bed_hallway"
         width="1920"
         height="1080"
         href="/local/floorplans/floorplan0010.png"
         preserveAspectRatio="none"
         xlink:href="floorplan0010.png"
         style="display:inline" /><image
         id="light_overlay.upstairs_hallway"
         width="1920"
         height="1080"
         href="/local/floorplans/floorplan0011.png"
         preserveAspectRatio="none"
         xlink:href="floorplan0011.png"
         style="display:inline" /></g></g><g
     id="areas"
     inkscape:groupmode="layer"><g
       id="area.second_floor"
       inkscape:groupmode="layer"><path
         id="area.second_floor_path"
         d="m 683.71,545.03 12.187,60.178 7.1233,6.5754 0.54795,7.9452 16.164,16.438 -0.27397,-2.4658 1.6438,-1.0959 83.014,89.315 130.69,-87.124 7.3973,7.6713 161.64002,-107.4 -7.6713,-6.3014 92.329,-60 10.137,-63.562 8.4932,-4.3836 -122.19,-87.398 z"
         fill="none"
         stroke="#267ef5"
         stroke-linecap="square"
         stroke-linejoin="round"
         style="paint-order:markers fill stroke" /><use
         id="climate.main_floor_thermostat"
         xlink:href="#area.second_floor_path"
         inkscape:label="climate.main_floor_thermostat" /></g><g
       id="area.top_floor"
       inkscape:groupmode="layer"><path
         id="area.top_floor_path"
         d="m 504.72,298.27 22.004,73.073 91.002,94.262 126.04,-68.727 6.7912,5.9763 186.08,-100.78 -3.5314,-2.7165 v -3.2598 l 79.865,-43.735 2.4448,-70.357 4.0747,-2.4448 -105.13,-73.617 z"
         fill="none"
         stroke="#267ef5"
         stroke-linecap="square"
         stroke-linejoin="round"
         style="paint-order:markers fill stroke" /><use
         id="climate.upstairs_thermostat"
         xlink:href="#area.top_floor_path" /></g><g
       id="area.entry"
       inkscape:groupmode="layer"><path
         id="area.entry_path"
         d="m 1079.6,667.01 -202.5,140.37 9.8622,10.52 4.6023,57.858 31.244,30.202 74.033,-56.799 4.1463,0.0782 -0.3254,7.0885 32.093,2.2133 0.5534,-5.6439 h 6.5292 l 24.233,-19.082 1.1865,0.84156 0.2582,4.5114 19.787,-15.67 0.4489,-6.8927 6.66,-5.098 0.4796,-5.2055 4.8968,-3.7439 7.912,-5.8154 -2.6845,-2.5959 -2.6432,1.7579 -0.332,3.32 -22.244,-21.137 v -6.1973 l -2.1027,-2.2133 -33.274,24.455 -1.2545,-2.0281 95.947,-121.69 3.2093,-28.662 -12.173,8.9639 -4.5373,4.7586 -11.841,-10.403 -10.071,6.5293 -19.477,23.35 0.332,-7.4146 -1.4386,-1.4386 z"
         fill="none"
         stroke="#000000"
         stroke-linecap="square"
         stroke-linejoin="round"
         style="paint-order:markers fill stroke" /><use
         id="binary_sensor.entry_motion"
         xlink:href="#area.entry_path" /><use
         id="binary_sensor.entrance_occupancy"
         xlink:href="#area.entry_path" /><use
         id="light.entrance_group"
         xlink:href="#area.entry_path" /></g><g
       id="area.kitchen"
       inkscape:groupmode="layer"><path
         id="area.kitchen_path"
         d="m 921.53,641.89 1.8773,1.4441 11.605,-8.2052 7.7061,7.6683 161.4,-107.53 -20.842,-16.652 -0.1086,-2.4975 -9.5558,-7.8184 -0.9773,3.3662 -4.4521,-4.0178 0.2172,-4.0178 -9.5558,-8.0356 -0.8687,0.10859 -0.4344,3.2576 -41.046,-34.205 -0.7601,7.2754 -31.382,18.026 -2.6061,-2.1718 0.21718,-9.0128 -11.076,-8.9042 10.316,-5.7552 0.21718,-23.021 -14.334,-12.379 -77.315,45.824 -1.7374,-1.9546 -9.1214,5.2122 -0.10859,3.1491 -41.915,24.758 2.2804,50.385 -3.2576,2.0632 -0.54294,6.5153 18.026,17.917 1.0859,-0.65153 5.1036,5.6466 0.32577,-1.0859 0.65153,-0.21718 15.202,14.442 -0.32577,1.5202 43.11,42.024 z"
         fill="none"
         stroke="#000000"
         stroke-linecap="square"
         stroke-linejoin="round"
         style="paint-order:markers fill stroke" /><use
         id="use7469"
         xlink:href="#area.kitchen_path" /><use
         id="light.kitchen_main"
         xlink:href="#area.kitchen_path" /></g><g
       id="area.family_room"
       inkscape:groupmode="layer"><path
         id="area.family_room_path"
         d="m 803.68,721.65 119.84,-78.565 -1.9078,-1.214 -3.1218,2.428 -43.049,-41.84 v -1.5552 l -14.83,-14.385 -0.55542,0.27771 -0.27771,0.94421 -5.332,-5.6097 -0.88866,0.61096 -18.384,-17.496 0.16663,-2.8882 0.38879,-0.38879 0.11108,-3.2214 -18.916,-17.981 -4.7285,-69.614 -128.54,74.066 12.116,59.785 6.7532,6.3559 0.79449,7.7463 16.14,16.889 0.0816,-1.6318 1.8766,-1.2238 z"
         fill="none"
         stroke="#000000"
         stroke-linecap="square"
         stroke-linejoin="round"
         style="paint-order:markers fill stroke" /><use
         id="use4975"
         xlink:href="#area.family_room_path" /><use
         id="binary_sensor.family_room_motion"
         xlink:href="#area.family_room_path" /><use
         id="light.family_room_main"
         xlink:href="#area.family_room_path" /></g><g
       id="area.master_bedroom"
       inkscape:groupmode="layer"><path
         id="area.master_bedroom_path"
         d="m 527.08,371.45 90.287,94.083 126.89,-68.868 -52.329,-48.533 25.535,-13.873 1.8619,-1.064 -0.70931,-0.62065 h -2.1279 l -1.33,-0.62064 v -1.596 l 7.6251,-4.0785 -2.3939,-21.102 3.9012,0.70931 2.0393,1.8619 -0.26599,1.064 -0.88663,0.9753 -1.596,-0.26599 -1.064,-0.26599 1.8619,16.403 6.4724,-3.8125 h 1.064 l 1.1526,2.1279 -0.62064,1.2413 1.2413,1.2413 14.275,-7.8024 1.4186,1.1526 0.53198,6.7384 24.648,-12.679 0.0887,-8.8664 11.97,-6.1178 -2.4826,-1.6846 -1.1526,0.44331 -0.0887,1.8619 -15.959,-10.906 -0.79798,-7.9797 -2.5712,-1.8619 -53.092,26.315 -19.95,-18.348 -10.304,-69.223 -174.92,81.163 z"
         fill="none"
         stroke="#000000"
         stroke-linecap="square"
         stroke-linejoin="round"
         style="paint-order:markers fill stroke" /><use
         id="use7373"
         xlink:href="#area.master_bedroom_path" /></g><g
       id="area.office"
       inkscape:groupmode="layer"><path
         id="area.office_path"
         d="m 1095.7,528.72 93.471,-60.771 10.004,-62.414 7.6151,-5.3753 -81.526,-59.577 -7.3164,4.1808 -5.8233,53.753 -4.9274,2.6877 -1.236,-2.7512 -2.6573,-0.90908 -3.007,0.27972 -1.7482,1.3287 -3.5664,5.4545 -0.07,1.958 0.1398,1.3287 0.4196,0.90908 -5.3146,3.1468 -0.6294,4.7552 -0.9091,0.55944 -0.9091,-0.83916 -31.748,19.93 -0.4196,6.5734 -10.559,6.3636 -0.4895,7.4824 -1.4686,-1.1189 -18.601,11.608 0.07,-4.1958 -1.3287,-0.83916 -5.2447,3.7762 39.65,32.727 0.2797,-3.2867 1.1188,-0.20978 9.5104,8.4614 -0.1398,3.986 4.1957,3.916 1.049,-3.2867 9.7901,7.8321 -0.07,2.3776 z"
         fill="none"
         stroke="#000000"
         stroke-linecap="square"
         stroke-linejoin="round"
         style="paint-order:markers fill stroke" /><use
         id="use7479"
         xlink:href="#area.office_path" /></g><g
       id="area.baby_room"
       inkscape:groupmode="layer"><path
         id="area.baby_room_path"
         d="m 932.98,295.27 80.117,-43.289 2.326,-69.909 3.489,-1.8091 -70.426,-50.655 -4.3935,2.1968 2.4552,76.499 -18.479,9.4332 0.12922,-6.4611 -1.2922,-1.0338 -48.07,24.035 -32.047,-25.198 -4.652,-67.841 -41.997,19.254 5.6858,69.004 35.794,28.946 2.1968,-0.51689 0.38766,7.6241 16.024,11.372 v -3.8766 l 3.2305,2.9721 -0.51688,-15.765 22.743,-11.63 36.311,28.946 0.12922,2.0676 10.338,7.4949 z"
         fill="none"
         stroke="#000000"
         stroke-linecap="square"
         stroke-linejoin="round"
         style="paint-order:markers fill stroke" /><use
         id="binary_sensor.baby_room_motion"
         xlink:href="#area.baby_room_path" /><use
         id="use7459"
         xlink:href="#area.baby_room_path" /></g><g
       id="area.laundry"
       inkscape:groupmode="layer"><path
         id="area.laundry_path"
         d="m 841.49,296.82 40.834,35.019 54.273,-29.592 -3.489,-2.5844 -0.51689,-12.664 -9.4332,-6.978 -1.0338,-0.38766 v -1.9383 l -36.441,-28.946 -22.743,11.63 0.38766,17.057 -0.64611,0.51689 0.25845,8.141 z"
         fill="none"
         stroke="#000000"
         stroke-linecap="square"
         stroke-linejoin="round"
         style="paint-order:markers fill stroke" /><!-- <use id="binary_sensor.whirlpool_washing_machine_on" xlink:href="#area.laundry_path"/> --></g><g
       id="area.guest_room"
       fill="none"
       stroke="#000000"
       inkscape:groupmode="layer"><path
         id="area.guest_room_path"
         d="m 922.83,906.05 73.894,-56.848 4.3355,0.13468 -0.4294,7.1134 32.224,2.2224 0.5556,-5.8338 h 6.3894 l 20.001,-15.557 68.894,68.338 -118.9,96.95102 z"
         fill="none"
         stroke="#000000"
         stroke-linecap="square"
         stroke-linejoin="round"
         style="paint-order:markers fill stroke"
         inkscape:label="area.guest_room_path" /><use
         id="use494"
         xlink:href="#area.guest_room_path" /></g></g><g
     id="entities"
     fill="none"
     stroke="#0a84c7"
     stroke-linecap="square"
     stroke-linejoin="round"
     inkscape:groupmode="layer"
     inkscape:label="entities"><path
       id="light.kitchen_cabinet"
       d="m 840.33,543 13.562,13.734 33.133,-20.601 1.03,1.2017 21.802,-13.219 -1.3734,-1.545 26.437,-16.652 -13.047,-11.502 -0.17167,-7.0386 -18.369,11.502 0.68669,1.2017 -22.317,13.39 -2.9184,-1.3734 -33.648,21.287 -6.5235,-3.9485 z"
       style="paint-order:markers fill stroke" /><path
       id="media_player.samsung_q80aa_65_tv"
       d="m 730.53354,567.22241 3.9549,20.269 45.811,-27.684 -2.307,-19.445 z"
       stroke="#0a84c7"
       style="opacity:0.890577;mix-blend-mode:lighten;fill:#8ce0ff;fill-opacity:1;paint-order:markers fill stroke;filter:url(#filter8319)" /><path
       id="light.office_lamp"
       d="m 1095.5,409.02 2.6122,1.7873 -0.6874,1.5123 1.7872,1.3748 3.0247,0.68742 2.3372,-0.82491 1.2374,-1.2374 -0.6874,-1.2374 1.5123,-0.41245 1.6498,-0.82491 1.2374,-1.5123 0.5499,-2.0623 -2.6122,-4.9494 -1.2374,-2.6122 -1.7873,-0.8249 -2.1997,-0.41245 -1.5123,0.13748 -1.3749,0.54994 -1.2373,1.7873 -3.1622,4.6745 v 3.5746 z"
       style="paint-order:markers fill stroke" /><path
       id="light.kitchen_sink"
       d="m 904.54,563.26 12.875,13.047 33.133,-20.601 -13.562,-12.189 z"
       style="paint-order:markers fill stroke" /><path
       id="light.kitchen_table"
       d="m 1060.3,552.97 25.356,-16.724 -6.4738,-5.287 2.8053,-1.8342 0.7553,-12.84 -9.2792,-7.337 -1.6184,11.005 -2.9132,2.1579 -4.9633,-4.3159 2.5895,-2.1579 0.7553,-11.869 -8.8475,-7.4449 -2.158,10.466 -3.0211,2.3737 -14.134,-12.3 -11.006,7.4449 -1.8342,-1.5106 -0.3237,-11.221 -1.079,-0.64738 -9.9265,6.5817 -0.1079,13.703 1.079,1.079 -2.1579,0.86317 -0.9711,18.127 3.3448,2.9132 -0.4316,10.466 1.4027,0.86318 0.3237,-10.25 6.6896,6.0422 -0.1079,10.574 1.8342,1.4027 0.2158,-10.682 4.6396,-2.9132 0.2158,8.0923 -0.5395,9.9265 1.5105,0.97107 0.3237,-10.25 7.2291,5.8264 -0.3237,10.466 1.4027,0.97107 0.2158,-10.358 7.7686,-5.287 -0.3237,8.416 0.971,0.43159 0.9711,-0.97108 0.5395,-11.113 5.5027,5.179 10e-5,11.761 3.9921,-2.3737 z"
       style="paint-order:markers fill stroke" /><path
       id="binary_sensor.whirlpool_washing_machine_on"
       d="m 863.2,285.74 18.522,13.891 v -24.31 l 21.995,-12.155 -18.136,-14.277 -22.767,11.19 z"
       stroke="#0a84c7"
       style="paint-order:markers fill stroke" /><path
       id="binary_sensor.whirlpool_dishwasher_on"
       d="m 939.1,541.82 22.962,21.39 -0.15727,20.446 20.918,-13.369 0.62911,-20.918 -22.805,-19.974 z"
       stroke="#267ef5"
       style="paint-order:markers fill stroke" /><path
       id="binary_sensor.fridge_on"
       d="m 963.09,464.26 3.4062,2.8952 -0.1703,46.153 -25.206,15.157 -4.5983,-3.7468 v -18.734 l -13.795,-11.922 v -20.437 l 12.432,7.3232 z"
       stroke="#267ef5"
       style="paint-order:markers fill stroke" /></g><g
     inkscape:groupmode="layer"
     id="sensors"
     inkscape:label="sensors"><text
       xml:space="preserve"
       style="font-style:normal;font-variant:normal;font-weight:bold;font-stretch:normal;font-size:18.7546px;font-family:sans-serif;-inkscape-font-specification:'sans-serif Bold';text-align:center;text-anchor:middle;fill:#ffffff;fill-opacity:1;fill-rule:evenodd;stroke:none;stroke-width:0.703297;stroke-linecap:square;stroke-linejoin:round;stroke-opacity:1;paint-order:markers fill stroke"
       x="243.86823"
       y="1295.5646"
       id="sensor.guest_room_temp_temperature"
       transform="matrix(0.77537544,-0.59502864,0.63181462,0.80483875,0,0)"><tspan
         sodipodi:role="line"
         id="tspan872"
         x="243.86823"
         y="1295.5646"
         style="font-style:normal;font-variant:normal;font-weight:bold;font-stretch:normal;font-family:sans-serif;-inkscape-font-specification:'sans-serif Bold';display:inline;fill:#ffffff;fill-opacity:1;stroke:none;stroke-width:0.703297"
         inkscape:label="tspan872">73.8 ºF</tspan></text><text
       xml:space="preserve"
       style="font-style:normal;font-variant:normal;font-weight:bold;font-stretch:normal;font-size:18.7546px;font-family:sans-serif;-inkscape-font-specification:'sans-serif Bold';text-align:center;text-anchor:middle;fill:#ffffff;fill-opacity:1;fill-rule:evenodd;stroke:none;stroke-width:0.703297;stroke-linecap:square;stroke-linejoin:round;stroke-opacity:1;paint-order:markers fill stroke"
       x="242.96591"
       y="1310.6385"
       id="sensor.guest_room_temp_humidity"
       transform="matrix(0.7715682,-0.5961153,0.63465212,0.80572808,0,0)"><tspan
         sodipodi:role="line"
         id="tspan873"
         x="242.96591"
         y="1310.6385"
         style="font-style:normal;font-variant:normal;font-weight:bold;font-stretch:normal;font-family:sans-serif;-inkscape-font-specification:'sans-serif Bold';fill:#ffffff;fill-opacity:1;stroke:none;stroke-width:0.703297"
         inkscape:label="tspan873">34.5 %</tspan></text><text
       xml:space="preserve"
       style="font-style:normal;font-variant:normal;font-weight:bold;font-stretch:normal;font-size:18.4599px;font-family:sans-serif;-inkscape-font-specification:'sans-serif Bold';text-align:center;text-anchor:middle;fill:#ffffff;fill-opacity:1;fill-rule:evenodd;stroke:none;stroke-width:0.692245;stroke-linecap:square;stroke-linejoin:round;stroke-opacity:1;paint-order:markers fill stroke"
       x="257.16074"
       y="799.62396"
       id="sensor.family_room_temp_temperature"
       transform="matrix(0.72049967,-0.47338374,0.72841242,0.9093431,0,0)"><tspan
         sodipodi:role="line"
         id="tspan4971"
         x="257.16074"
         y="799.62396"
         style="font-style:normal;font-variant:normal;font-weight:bold;font-stretch:normal;font-family:sans-serif;-inkscape-font-specification:'sans-serif Bold';fill:#ffffff;fill-opacity:1;stroke:none;stroke-width:0.692245"
         inkscape:label="tspan873">70.1 ºF</tspan></text><text
       xml:space="preserve"
       style="font-style:normal;font-variant:normal;font-weight:bold;font-stretch:normal;font-size:18.4599px;font-family:sans-serif;-inkscape-font-specification:'sans-serif Bold';text-align:center;text-anchor:middle;fill:#ffffff;fill-opacity:1;fill-rule:evenodd;stroke:none;stroke-width:0.692245;stroke-linecap:square;stroke-linejoin:round;stroke-opacity:1;paint-order:markers fill stroke"
       x="287.7702"
       y="856.14764"
       id="sensor.family_room_temp_humidity"
       transform="matrix(0.75765936,-0.49300661,0.6582648,0.89152346,0,0)"><tspan
         sodipodi:role="line"
         id="tspan5079"
         x="287.7702"
         y="856.14764"
         style="font-style:normal;font-variant:normal;font-weight:bold;font-stretch:normal;font-family:sans-serif;-inkscape-font-specification:'sans-serif Bold';fill:#ffffff;fill-opacity:1;stroke:none;stroke-width:0.692245"
         inkscape:label="tspan873">23.6 %</tspan></text><text
       xml:space="preserve"
       style="font-style:normal;font-variant:normal;font-weight:bold;font-stretch:normal;font-size:18.5452px;font-family:sans-serif;-inkscape-font-specification:'sans-serif Bold';text-align:center;text-anchor:middle;fill:#ffffff;fill-opacity:1;fill-rule:evenodd;stroke:none;stroke-width:0.695443;stroke-linecap:square;stroke-linejoin:round;stroke-opacity:1;paint-order:markers fill stroke"
       x="349.77148"
       y="874.90991"
       id="sensor.kitchen_temp_temperature"
       transform="matrix(0.71478963,-0.46147823,0.81701994,0.87153347,0,0)"><tspan
         sodipodi:role="line"
         id="tspan7465"
         x="349.77148"
         y="874.90991"
         style="font-style:normal;font-variant:normal;font-weight:bold;font-stretch:normal;font-family:sans-serif;-inkscape-font-specification:'sans-serif Bold';fill:#ffffff;fill-opacity:1;stroke:none;stroke-width:0.695443"
         inkscape:label="tspan873">70.1 ºF</tspan></text><text
       xml:space="preserve"
       style="font-style:normal;font-variant:normal;font-weight:bold;font-stretch:normal;font-size:18.3011px;font-family:sans-serif;-inkscape-font-specification:'sans-serif Bold';text-align:center;text-anchor:middle;fill:#ffffff;fill-opacity:1;fill-rule:evenodd;stroke:none;stroke-width:0.686289;stroke-linecap:square;stroke-linejoin:round;stroke-opacity:1;paint-order:markers fill stroke"
       x="317.95935"
       y="932.60889"
       id="sensor.kitchen_temp_humidity"
       transform="matrix(0.75478186,-0.47994349,0.79109241,0.82185381,0,0)"><tspan
         sodipodi:role="line"
         id="tspan7471"
         x="317.95935"
         y="932.60889"
         style="font-style:normal;font-variant:normal;font-weight:bold;font-stretch:normal;font-family:sans-serif;-inkscape-font-specification:'sans-serif Bold';fill:#ffffff;fill-opacity:1;stroke:none;stroke-width:0.686289"
         inkscape:label="tspan873">23.6 %</tspan></text><text
       xml:space="preserve"
       style="font-style:normal;font-variant:normal;font-weight:bold;font-stretch:normal;font-size:16.5091px;font-family:sans-serif;-inkscape-font-specification:'sans-serif Bold';text-align:center;text-anchor:middle;fill:#ffffff;fill-opacity:1;fill-rule:evenodd;stroke:none;stroke-width:0.619087;stroke-linecap:square;stroke-linejoin:round;stroke-opacity:1;paint-order:markers fill stroke"
       x="331.01703"
       y="863.37006"
       id="sensor.office_temp_temperature"
       transform="matrix(0.79985982,-0.45405245,0.97303692,0.69786004,0,0)"><tspan
         sodipodi:role="line"
         id="tspan7475"
         x="331.01703"
         y="863.37006"
         style="font-style:normal;font-variant:normal;font-weight:bold;font-stretch:normal;font-family:sans-serif;-inkscape-font-specification:'sans-serif Bold';fill:#ffffff;fill-opacity:1;stroke:none;stroke-width:0.619087"
         inkscape:label="tspan873">70.1 ºF</tspan></text><text
       xml:space="preserve"
       style="font-style:normal;font-variant:normal;font-weight:bold;font-stretch:normal;font-size:16.9774px;font-family:sans-serif;-inkscape-font-specification:'sans-serif Bold';text-align:center;text-anchor:middle;fill:#ffffff;fill-opacity:1;fill-rule:evenodd;stroke:none;stroke-width:0.637;stroke-linecap:square;stroke-linejoin:round;stroke-dasharray:none;stroke-opacity:1;paint-order:markers fill stroke"
       x="323.61609"
       y="943.39941"
       id="sensor.office_temp_humidity"
       transform="matrix(0.79460515,-0.51483459,0.91371421,0.66647984,0,0)"><tspan
         sodipodi:role="line"
         id="tspan7481"
         x="323.61609"
         y="943.39941"
         style="font-style:normal;font-variant:normal;font-weight:bold;font-stretch:normal;font-family:sans-serif;-inkscape-font-specification:'sans-serif Bold';fill:#ffffff;fill-opacity:1;stroke:none;stroke-width:0.637;stroke-dasharray:none"
         inkscape:label="tspan873">23.6 %</tspan></text><text
       xml:space="preserve"
       style="font-style:normal;font-variant:normal;font-weight:bold;font-stretch:normal;font-size:17.682px;font-family:sans-serif;-inkscape-font-specification:'sans-serif Bold';text-align:center;text-anchor:middle;fill:#ffffff;fill-opacity:1;fill-rule:evenodd;stroke:none;stroke-width:0.663072;stroke-linecap:square;stroke-linejoin:round;stroke-opacity:1;paint-order:markers fill stroke"
       x="241.9389"
       y="522.09088"
       id="sensor.master_bedroom_temp_temperature"
       transform="matrix(0.75619669,-0.36370374,0.87702656,0.90058866,0,0)"><tspan
         sodipodi:role="line"
         id="tspan7369"
         x="241.9389"
         y="522.09088"
         style="font-style:normal;font-variant:normal;font-weight:bold;font-stretch:normal;font-family:sans-serif;-inkscape-font-specification:'sans-serif Bold';fill:#ffffff;fill-opacity:1;stroke:none;stroke-width:0.663072"
         inkscape:label="tspan873">70.1 ºF</tspan></text><text
       xml:space="preserve"
       style="font-style:normal;font-variant:normal;font-weight:bold;font-stretch:normal;font-size:17.5229px;font-family:sans-serif;-inkscape-font-specification:'sans-serif Bold';text-align:center;text-anchor:middle;fill:#ffffff;fill-opacity:1;fill-rule:evenodd;stroke:none;stroke-width:0.657108;stroke-linecap:square;stroke-linejoin:round;stroke-opacity:1;paint-order:markers fill stroke"
       x="213.63864"
       y="561.46277"
       id="sensor.master_bedroom_temp_humidity"
       transform="matrix(0.77213424,-0.38763686,0.87579819,0.855432,0,0)"><tspan
         sodipodi:role="line"
         id="tspan7375"
         x="213.63864"
         y="561.46277"
         style="font-style:normal;font-variant:normal;font-weight:bold;font-stretch:normal;font-family:sans-serif;-inkscape-font-specification:'sans-serif Bold';fill:#ffffff;fill-opacity:1;stroke:none;stroke-width:0.657108"
         inkscape:label="tspan873">23.6 %</tspan></text><text
       xml:space="preserve"
       style="font-style:normal;font-variant:normal;font-weight:bold;font-stretch:normal;font-size:16.6691px;font-family:sans-serif;-inkscape-font-specification:'sans-serif Bold';text-align:center;text-anchor:middle;fill:#ffffff;fill-opacity:1;fill-rule:evenodd;stroke:none;stroke-width:0.62509;stroke-linecap:square;stroke-linejoin:round;stroke-opacity:1;paint-order:markers fill stroke"
       x="522.03223"
       y="579.44739"
       id="sensor.baby_room_temp_temperature"
       transform="matrix(0.76080477,-0.42837369,0.9286927,0.79149408,0,0)"><tspan
         sodipodi:role="line"
         id="tspan7455"
         x="522.03223"
         y="579.44739"
         style="font-style:normal;font-variant:normal;font-weight:bold;font-stretch:normal;font-family:sans-serif;-inkscape-font-specification:'sans-serif Bold';fill:#ffffff;fill-opacity:1;stroke:none;stroke-width:0.62509"
         inkscape:label="tspan873">70.1 ºF</tspan></text><text
       xml:space="preserve"
       style="font-style:normal;font-variant:normal;font-weight:bold;font-stretch:normal;font-size:17.0055px;font-family:sans-serif;-inkscape-font-specification:'sans-serif Bold';text-align:center;text-anchor:middle;fill:#ffffff;fill-opacity:1;fill-rule:evenodd;stroke:none;stroke-width:0.637704;stroke-linecap:square;stroke-linejoin:round;stroke-opacity:1;paint-order:markers fill stroke"
       x="570.1781"
       y="608.65179"
       id="sensor.baby_room_temp_humidity"
       transform="matrix(0.78783189,-0.43450636,0.8242287,0.81472633,0,0)"><tspan
         sodipodi:role="line"
         id="tspan7461"
         x="570.1781"
         y="608.65179"
         style="font-style:normal;font-variant:normal;font-weight:bold;font-stretch:normal;font-family:sans-serif;-inkscape-font-specification:'sans-serif Bold';fill:#ffffff;fill-opacity:1;stroke:none;stroke-width:0.637704"
         inkscape:label="tspan873">23.6 %</tspan></text><text
       xml:space="preserve"
       style="font-style:normal;font-variant:normal;font-weight:bold;font-stretch:normal;font-size:16.6691px;font-family:sans-serif;-inkscape-font-specification:'sans-serif Bold';text-align:center;text-anchor:middle;fill:#0073da;fill-opacity:1;fill-rule:evenodd;stroke:none;stroke-width:0.62509;stroke-linecap:square;stroke-linejoin:round;stroke-opacity:1;paint-order:markers fill stroke"
       x="743.90759"
       y="608.23334"
       id="sensor.upstairs_thermostat_indoor_temperature"
       transform="matrix(1.0150148,-0.50753776,0.02466378,0.97287468,0,0)"><tspan
         sodipodi:role="line"
         id="tspan468"
         x="743.90759"
         y="608.23334"
         style="font-style:normal;font-variant:normal;font-weight:bold;font-stretch:normal;font-family:sans-serif;-inkscape-font-specification:'sans-serif Bold';fill:#0073da;fill-opacity:1;stroke:none;stroke-width:0.62509"
         inkscape:label="tspan873">Indoor: 70.1 ºF</tspan></text><text
       xml:space="preserve"
       style="font-style:normal;font-variant:normal;font-weight:bold;font-stretch:normal;font-size:16.6691px;font-family:sans-serif;-inkscape-font-specification:'sans-serif Bold';text-align:center;text-anchor:middle;fill:#0073da;fill-opacity:1;fill-rule:evenodd;stroke:none;stroke-width:0.62509;stroke-linecap:square;stroke-linejoin:round;stroke-opacity:1;paint-order:markers fill stroke"
       x="744.67529"
       y="585.17499"
       id="sensor.upstairs_thermostat_target_temperature"
       transform="matrix(1.0154625,-0.50454528,0.02365396,0.9730202,0,0)"><tspan
         sodipodi:role="line"
         id="tspan472"
         x="744.67529"
         y="585.17499"
         style="font-style:normal;font-variant:normal;font-weight:bold;font-stretch:normal;font-family:sans-serif;-inkscape-font-specification:'sans-serif Bold';fill:#0073da;fill-opacity:1;stroke:none;stroke-width:0.62509"
         inkscape:label="tspan873">Target: 70.1 ºF</tspan></text><text
       xml:space="preserve"
       style="font-style:normal;font-variant:normal;font-weight:bold;font-stretch:normal;font-size:16.6691px;font-family:sans-serif;-inkscape-font-specification:'sans-serif Bold';text-align:center;text-anchor:middle;fill:#0072eb;fill-opacity:1;fill-rule:evenodd;stroke:none;stroke-width:0.62509;stroke-linecap:square;stroke-linejoin:round;stroke-opacity:1;paint-order:markers fill stroke"
       x="1011.0498"
       y="1026.519"
       id="sensor.main_floor_thermostat_indoor_temperature"
       transform="matrix(1.0444104,-0.61104402,-0.03001977,0.97504142,0,0)"><tspan
         sodipodi:role="line"
         id="tspan1034"
         x="1011.0498"
         y="1026.519"
         style="font-style:normal;font-variant:normal;font-weight:bold;font-stretch:normal;font-family:sans-serif;-inkscape-font-specification:'sans-serif Bold';fill:#0072eb;fill-opacity:1;stroke:none;stroke-width:0.62509"
         inkscape:label="tspan873">Indoor: 70.1 ºF</tspan></text><text
       xml:space="preserve"
       style="font-style:normal;font-variant:normal;font-weight:bold;font-stretch:normal;font-size:16.6691px;font-family:sans-serif;-inkscape-font-specification:'sans-serif Bold';text-align:center;text-anchor:middle;fill:#0072eb;fill-opacity:1;fill-rule:evenodd;stroke:none;stroke-width:0.62509;stroke-linecap:square;stroke-linejoin:round;stroke-opacity:1;paint-order:markers fill stroke"
       x="1011.1732"
       y="1005.203"
       id="sensor.main_floor_thermostat_target_temperature"
       transform="matrix(1.0444104,-0.61104402,-0.03001977,0.97504142,0,0)"
       inkscape:label="sensor.main_floor_thermostat_target_temperature"><tspan
         sodipodi:role="line"
         id="tspan1038"
         x="1011.1732"
         y="1005.203"
         style="font-style:normal;font-variant:normal;font-weight:bold;font-stretch:normal;font-family:sans-serif;-inkscape-font-specification:'sans-serif Bold';fill:#0072eb;fill-opacity:1;stroke:none;stroke-width:0.62509"
         inkscape:label="tspan873">Target: 70.1 ºF</tspan></text></g></svg>
