<?xml version="1.0" encoding="UTF-8"?>
<svg id="svg5" width="1920" height="1080" version="1.1" viewBox="0 0 1920 1080" xml:space="preserve" xmlns="http://www.w3.org/2000/svg" xmlns:xlink="http://www.w3.org/1999/xlink"><g id="background"><image id="main-background" width="1920" height="1080" href="/local/floorplans/floorplan.png" preserveAspectRatio="none" xlink:href="file:///Users/GFahmy/Documents/projects/Home%20Automation/floorplans/floorplan.png"/><g id="light-overlays"><image id="light_overlay.entrance_main" width="1920" height="1080" href="/local/floorplans/floorplan0001.png" preserveAspectRatio="none" xlink:href="file:///Users/GFahmy/Documents/projects/Home%20Automation/floorplans/floorplan0001.png"/><image id="light_overlay.entrance_stairs" width="1920" height="1080" href="/local/floorplans/floorplan0002.png" preserveAspectRatio="none" xlink:href="file:///Users/GFahmy/Documents/projects/Home%20Automation/floorplans/floorplan0002.png"/><image id="light_overlay.family_room_main" width="1920" height="1080" href="/local/floorplans/floorplan0003.png" preserveAspectRatio="none" xlink:href="file:///Users/GFahmy/Documents/projects/Home%20Automation/floorplans/floorplan0003.png"/><image id="light_overlay.kitchen_main" width="1920" height="1080" href="/local/floorplans/floorplan0004.png" preserveAspectRatio="none" xlink:href="file:///Users/GFahmy/Documents/projects/Home%20Automation/floorplans/floorplan0004.png"/><image id="light_overlay.kitchen_table" width="1920" height="1080" href="/local/floorplans/floorplan0005.png" preserveAspectRatio="none" xlink:href="file:///Users/GFahmy/Documents/projects/Home%20Automation/floorplans/floorplan0005.png"/><image id="light_overlay.kitchen_cabinet" width="1920" height="1080" href="/local/floorplans/floorplan0006.png" preserveAspectRatio="none" xlink:href="file:///Users/GFahmy/Documents/projects/Home%20Automation/floorplans/floorplan0006.png"/><image id="light_overlay.office_floor_lamp" width="1920" height="1080" href="/local/floorplans/floorplan0007.png" preserveAspectRatio="none" xlink:href="file:///Users/GFahmy/Documents/projects/Home%20Automation/floorplans/floorplan0007.png"/><image id="light_overlay.office_desk_lamp" width="1920" height="1080" href="/local/floorplans/floorplan0008.png" preserveAspectRatio="none" xlink:href="file:///Users/GFahmy/Documents/projects/Home%20Automation/floorplans/floorplan0008.png"/><image id="light_overlay.master_bed_closet" width="1920" height="1080" href="/local/floorplans/floorplan0009.png" preserveAspectRatio="none" xlink:href="file:///Users/GFahmy/Documents/projects/Home%20Automation/floorplans/floorplan0009.png"/><image id="light_overlay.master_bed_hallway" width="1920" height="1080" href="/local/floorplans/floorplan0010.png" preserveAspectRatio="none" xlink:href="file:///Users/GFahmy/Documents/projects/Home%20Automation/floorplans/floorplan0010.png"/><image id="light_overlay.upstairs_hallway" width="1920" height="1080" href="/local/floorplans/floorplan0011.png" preserveAspectRatio="none" xlink:href="file:///Users/GFahmy/Documents/projects/Home%20Automation/floorplans/floorplan0011.png"/></g></g><g id="areas"><g id="area.second_floor"><path id="area.second_floor_path" d="m683.71 545.03 12.187 60.178 7.1233 6.5754 0.54795 7.9452 16.164 16.438-0.27397-2.4658 1.6438-1.0959 83.014 89.315 130.69-87.124 7.3973 7.6713 161.64-107.4-7.6713-6.3014 92.329-60 10.137-63.562 8.4932-4.3836-122.19-87.398z" fill="none" stroke="#267ef5" stroke-linecap="square" stroke-linejoin="round" style="paint-order:markers fill stroke"/><use id="climate.main_floor_thermostat" xlink:href="#area.second_floor_path"/></g><g id="area.top_floor"><path id="area.top_floor_path" d="m504.72 298.27 22.004 73.073 91.002 94.262 126.04-68.727 6.7912 5.9763 186.08-100.78-3.5314-2.7165v-3.2598l79.865-43.735 2.4448-70.357 4.0747-2.4448-105.13-73.617z" fill="none" stroke="#267ef5" stroke-linecap="square" stroke-linejoin="round" style="paint-order:markers fill stroke"/><use id="climate.upstairs_thermostat" xlink:href="#area.top_floor_path"/></g><g id="area.entry"><path id="area.entry_path" d="m1079.6 667.01-202.5 140.37 9.8622 10.52 4.6023 57.858 31.244 30.202 74.033-56.799 4.1463 0.0782-0.3254 7.0885 32.093 2.2133 0.5534-5.6439h6.5292l24.233-19.082 1.1865 0.84156 0.2582 4.5114 19.787-15.67 0.4489-6.8927 6.66-5.098 0.4796-5.2055 4.8968-3.7439 7.912-5.8154-2.6845-2.5959-2.6432 1.7579-0.332 3.32-22.244-21.137v-6.1973l-2.1027-2.2133-33.274 24.455-1.2545-2.0281 95.947-121.69 3.2093-28.662-12.173 8.9639-4.5373 4.7586-11.841-10.403-10.071 6.5293-19.477 23.35 0.332-7.4146-1.4386-1.4386z" fill="none" stroke="#000" stroke-linecap="square" stroke-linejoin="round" style="paint-order:markers fill stroke"/><use id="binary_sensor.entry_motion" xlink:href="#area.entry_path"/><use id="binary_sensor.entrance_occupancy" xlink:href="#area.entry_path"/><use id="light.entrance_group" xlink:href="#area.entry_path"/></g><g id="area.kitchen"><path id="area.kitchen_path" d="m921.53 641.89 1.8773 1.4441 11.605-8.2052 7.7061 7.6683 161.4-107.53-20.842-16.652-0.1086-2.4975-9.5558-7.8184-0.9773 3.3662-4.4521-4.0178 0.2172-4.0178-9.5558-8.0356-0.8687 0.10859-0.4344 3.2576-41.046-34.205-0.7601 7.2754-31.382 18.026-2.6061-2.1718 0.21718-9.0128-11.076-8.9042 10.316-5.7552 0.21718-23.021-14.334-12.379-77.315 45.824-1.7374-1.9546-9.1214 5.2122-0.10859 3.1491-41.915 24.758 2.2804 50.385-3.2576 2.0632-0.54294 6.5153 18.026 17.917 1.0859-0.65153 5.1036 5.6466 0.32577-1.0859 0.65153-0.21718 15.202 14.442-0.32577 1.5202 43.11 42.024z" fill="none" stroke="#000" stroke-linecap="square" stroke-linejoin="round" style="paint-order:markers fill stroke"/><use id="use7469" xlink:href="#area.kitchen_path"/><use id="light.kitchen_main" xlink:href="#area.kitchen_path"/></g><g id="area.family_room"><path id="area.family_room_path" d="m803.68 721.65 119.84-78.565-1.9078-1.214-3.1218 2.428-43.049-41.84v-1.5552l-14.83-14.385-0.55542 0.27771-0.27771 0.94421-5.332-5.6097-0.88866 0.61096-18.384-17.496 0.16663-2.8882 0.38879-0.38879 0.11108-3.2214-18.916-17.981-4.7285-69.614-128.54 74.066 12.116 59.785 6.7532 6.3559 0.79449 7.7463 16.14 16.889 0.0816-1.6318 1.8766-1.2238z" fill="none" stroke="#000" stroke-linecap="square" stroke-linejoin="round" style="paint-order:markers fill stroke"/><use id="use4975" xlink:href="#area.family_room_path"/><use id="binary_sensor.family_room_motion" xlink:href="#area.family_room_path"/><use id="light.family_room_main" xlink:href="#area.family_room_path"/></g><g id="area.master_bedroom"><path id="area.master_bedroom_path" d="m527.08 371.45 90.287 94.083 126.89-68.868-52.329-48.533 25.535-13.873 1.8619-1.064-0.70931-0.62065h-2.1279l-1.33-0.62064v-1.596l7.6251-4.0785-2.3939-21.102 3.9012 0.70931 2.0393 1.8619-0.26599 1.064-0.88663 0.9753-1.596-0.26599-1.064-0.26599 1.8619 16.403 6.4724-3.8125h1.064l1.1526 2.1279-0.62064 1.2413 1.2413 1.2413 14.275-7.8024 1.4186 1.1526 0.53198 6.7384 24.648-12.679 0.0887-8.8664 11.97-6.1178-2.4826-1.6846-1.1526 0.44331-0.0887 1.8619-15.959-10.906-0.79798-7.9797-2.5712-1.8619-53.092 26.315-19.95-18.348-10.304-69.223-174.92 81.163z" fill="none" stroke="#000" stroke-linecap="square" stroke-linejoin="round" style="paint-order:markers fill stroke"/><use id="use7373" xlink:href="#area.master_bedroom_path"/></g><g id="area.office"><path id="area.office_path" d="m1095.7 528.72 93.471-60.771 10.004-62.414 7.6151-5.3753-81.526-59.577-7.3164 4.1808-5.8233 53.753-4.9274 2.6877-1.236-2.7512-2.6573-0.90908-3.007 0.27972-1.7482 1.3287-3.5664 5.4545-0.07 1.958 0.1398 1.3287 0.4196 0.90908-5.3146 3.1468-0.6294 4.7552-0.9091 0.55944-0.9091-0.83916-31.748 19.93-0.4196 6.5734-10.559 6.3636-0.4895 7.4824-1.4686-1.1189-18.601 11.608 0.07-4.1958-1.3287-0.83916-5.2447 3.7762 39.65 32.727 0.2797-3.2867 1.1188-0.20978 9.5104 8.4614-0.1398 3.986 4.1957 3.916 1.049-3.2867 9.7901 7.8321-0.07 2.3776z" fill="none" stroke="#000" stroke-linecap="square" stroke-linejoin="round" style="paint-order:markers fill stroke"/><use id="use7479" xlink:href="#area.office_path"/></g><g id="area.baby_room"><path id="area.baby_room_path" d="m932.98 295.27 80.117-43.289 2.326-69.909 3.489-1.8091-70.426-50.655-4.3935 2.1968 2.4552 76.499-18.479 9.4332 0.12922-6.4611-1.2922-1.0338-48.07 24.035-32.047-25.198-4.652-67.841-41.997 19.254 5.6858 69.004 35.794 28.946 2.1968-0.51689 0.38766 7.6241 16.024 11.372v-3.8766l3.2305 2.9721-0.51688-15.765 22.743-11.63 36.311 28.946 0.12922 2.0676 10.338 7.4949z" fill="none" stroke="#000" stroke-linecap="square" stroke-linejoin="round" style="paint-order:markers fill stroke"/><use id="binary_sensor.baby_room_motion" xlink:href="#area.baby_room_path"/><use id="use7459" xlink:href="#area.baby_room_path"/></g><g id="area.laundry"><path id="area.laundry_path" d="m841.49 296.82 40.834 35.019 54.273-29.592-3.489-2.5844-0.51689-12.664-9.4332-6.978-1.0338-0.38766v-1.9383l-36.441-28.946-22.743 11.63 0.38766 17.057-0.64611 0.51689 0.25845 8.141z" fill="none" stroke="#000" stroke-linecap="square" stroke-linejoin="round" style="paint-order:markers fill stroke"/></g><g id="area.guest_room" fill="none" stroke="#000"><path id="area.guest_room_path" d="m922.83 906.05 73.894-56.848 4.3355 0.13468-0.4294 7.1134 32.224 2.2224 0.5556-5.8338h6.3894l20.001-15.557 68.894 68.338-118.9 96.951z" fill="none" stroke="#000" stroke-linecap="square" stroke-linejoin="round" style="paint-order:markers fill stroke"/><use id="use494" xlink:href="#area.guest_room_path"/></g></g><g id="entities" fill="none" stroke="#0a84c7" stroke-linecap="square" stroke-linejoin="round"><path id="light.kitchen_cabinet" d="m840.33 543 13.562 13.734 33.133-20.601 1.03 1.2017 21.802-13.219-1.3734-1.545 26.437-16.652-13.047-11.502-0.17167-7.0386-18.369 11.502 0.68669 1.2017-22.317 13.39-2.9184-1.3734-33.648 21.287-6.5235-3.9485z" style="paint-order:markers fill stroke"/><path id="media_player.samsung_q80aa_65_tv" d="m725.39 567.69 3.9549 20.269 45.811-27.684-2.307-19.445z" stroke="#0a84c7" style="paint-order:markers fill stroke"/><path id="light.office_lamp" d="m1095.5 409.02 2.6122 1.7873-0.6874 1.5123 1.7872 1.3748 3.0247 0.68742 2.3372-0.82491 1.2374-1.2374-0.6874-1.2374 1.5123-0.41245 1.6498-0.82491 1.2374-1.5123 0.5499-2.0623-2.6122-4.9494-1.2374-2.6122-1.7873-0.8249-2.1997-0.41245-1.5123 0.13748-1.3749 0.54994-1.2373 1.7873-3.1622 4.6745v3.5746z" style="paint-order:markers fill stroke"/><path id="light.kitchen_sink" d="m904.54 563.26 12.875 13.047 33.133-20.601-13.562-12.189z" style="paint-order:markers fill stroke"/><path id="light.kitchen_table" d="m1060.3 552.97 25.356-16.724-6.4738-5.287 2.8053-1.8342 0.7553-12.84-9.2792-7.337-1.6184 11.005-2.9132 2.1579-4.9633-4.3159 2.5895-2.1579 0.7553-11.869-8.8475-7.4449-2.158 10.466-3.0211 2.3737-14.134-12.3-11.006 7.4449-1.8342-1.5106-0.3237-11.221-1.079-0.64738-9.9265 6.5817-0.1079 13.703 1.079 1.079-2.1579 0.86317-0.9711 18.127 3.3448 2.9132-0.4316 10.466 1.4027 0.86318 0.3237-10.25 6.6896 6.0422-0.1079 10.574 1.8342 1.4027 0.2158-10.682 4.6396-2.9132 0.2158 8.0923-0.5395 9.9265 1.5105 0.97107 0.3237-10.25 7.2291 5.8264-0.3237 10.466 1.4027 0.97107 0.2158-10.358 7.7686-5.287-0.3237 8.416 0.971 0.43159 0.9711-0.97108 0.5395-11.113 5.5027 5.179 1e-4 11.761 3.9921-2.3737z" style="paint-order:markers fill stroke"/><path id="binary_sensor.whirlpool_washing_machine_on" d="m863.2 285.74 18.522 13.891v-24.31l21.995-12.155-18.136-14.277-22.767 11.19z" stroke="#0a84c7" style="paint-order:markers fill stroke"/><path id="binary_sensor.whirlpool_dishwasher_on" d="m939.1 541.82 22.962 21.39-0.15727 20.446 20.918-13.369 0.62911-20.918-22.805-19.974z" stroke="#267ef5" style="paint-order:markers fill stroke"/><path id="binary_sensor.fridge_on" d="m963.09 464.26 3.4062 2.8952-0.1703 46.153-25.206 15.157-4.5983-3.7468v-18.734l-13.795-11.922v-20.437l12.432 7.3232z" stroke="#267ef5" style="paint-order:markers fill stroke"/></g><g id="sensors" fill-rule="evenodd" font-family="sans-serif" font-weight="bold" stroke-linecap="square" stroke-linejoin="round" text-anchor="middle"><text id="sensor.guest_room_temp_temperature" transform="matrix(.77538 -.59503 .63181 .80484 0 0)" x="243.86823" y="1295.5646" fill="#ffffff" font-size="18.755px" stroke-width=".7033" text-align="center" style="paint-order:markers fill stroke" xml:space="preserve"><tspan id="tspan872" x="243.86823" y="1295.5646" fill="#ffffff" font-family="sans-serif" font-weight="bold" stroke-width=".7033">73.8 ºF</tspan></text><text id="sensor.guest_room_temp_humidity" transform="matrix(.77157 -.59612 .63465 .80573 0 0)" x="242.96591" y="1310.6385" fill="#ffffff" font-size="18.755px" stroke-width=".7033" text-align="center" style="paint-order:markers fill stroke" xml:space="preserve"><tspan id="tspan873" x="242.96591" y="1310.6385" fill="#ffffff" font-family="sans-serif" font-weight="bold" stroke-width=".7033">34.5 %</tspan></text><text id="sensor.family_room_temp_temperature" transform="matrix(.7205 -.47338 .72841 .90934 0 0)" x="257.16074" y="799.62396" fill="#ffffff" font-size="18.46px" stroke-width=".69224" text-align="center" style="paint-order:markers fill stroke" xml:space="preserve"><tspan id="tspan4971" x="257.16074" y="799.62396" fill="#ffffff" font-family="sans-serif" font-weight="bold" stroke-width=".69224">70.1 ºF</tspan></text><text id="sensor.family_room_temp_humidity" transform="matrix(.75766 -.49301 .65826 .89152 0 0)" x="287.7702" y="856.14764" fill="#ffffff" font-size="18.46px" stroke-width=".69224" text-align="center" style="paint-order:markers fill stroke" xml:space="preserve"><tspan id="tspan5079" x="287.7702" y="856.14764" fill="#ffffff" font-family="sans-serif" font-weight="bold" stroke-width=".69224">23.6 %</tspan></text><text id="sensor.kitchen_temp_temperature" transform="matrix(.71479 -.46148 .81702 .87153 0 0)" x="349.77148" y="874.90991" fill="#ffffff" font-size="18.545px" stroke-width=".69544" text-align="center" style="paint-order:markers fill stroke" xml:space="preserve"><tspan id="tspan7465" x="349.77148" y="874.90991" fill="#ffffff" font-family="sans-serif" font-weight="bold" stroke-width=".69544">70.1 ºF</tspan></text><text id="sensor.kitchen_temp_humidity" transform="matrix(.75478 -.47994 .79109 .82185 0 0)" x="317.95935" y="932.60889" fill="#ffffff" font-size="18.301px" stroke-width=".68629" text-align="center" style="paint-order:markers fill stroke" xml:space="preserve"><tspan id="tspan7471" x="317.95935" y="932.60889" fill="#ffffff" font-family="sans-serif" font-weight="bold" stroke-width=".68629">23.6 %</tspan></text><text id="sensor.office_temp_temperature" transform="matrix(.79986 -.45405 .97304 .69786 0 0)" x="331.01703" y="863.37006" fill="#ffffff" font-size="16.509px" stroke-width=".61909" text-align="center" style="paint-order:markers fill stroke" xml:space="preserve"><tspan id="tspan7475" x="331.01703" y="863.37006" fill="#ffffff" font-family="sans-serif" font-weight="bold" stroke-width=".61909">70.1 ºF</tspan></text><text id="sensor.office_temp_humidity" transform="matrix(.79461 -.51483 .91371 .66648 0 0)" x="323.61609" y="943.39941" fill="#ffffff" font-size="16.977px" stroke-width=".637" text-align="center" style="paint-order:markers fill stroke" xml:space="preserve"><tspan id="tspan7481" x="323.61609" y="943.39941" fill="#ffffff" font-family="sans-serif" font-weight="bold" stroke-width=".637">23.6 %</tspan></text><text id="sensor.master_bedroom_temp_temperature" transform="matrix(.7562 -.3637 .87703 .90059 0 0)" x="241.9389" y="522.09088" fill="#ffffff" font-size="17.682px" stroke-width=".66307" text-align="center" style="paint-order:markers fill stroke" xml:space="preserve"><tspan id="tspan7369" x="241.9389" y="522.09088" fill="#ffffff" font-family="sans-serif" font-weight="bold" stroke-width=".66307">70.1 ºF</tspan></text><text id="sensor.master_bedroom_temp_humidity" transform="matrix(.77213 -.38764 .8758 .85543 0 0)" x="213.63864" y="561.46277" fill="#ffffff" font-size="17.523px" stroke-width=".65711" text-align="center" style="paint-order:markers fill stroke" xml:space="preserve"><tspan id="tspan7375" x="213.63864" y="561.46277" fill="#ffffff" font-family="sans-serif" font-weight="bold" stroke-width=".65711">23.6 %</tspan></text><text id="sensor.baby_room_temp_temperature" transform="matrix(.7608 -.42837 .92869 .79149 0 0)" x="522.03223" y="579.44739" fill="#ffffff" font-size="16.669px" stroke-width=".62509" text-align="center" style="paint-order:markers fill stroke" xml:space="preserve"><tspan id="tspan7455" x="522.03223" y="579.44739" fill="#ffffff" font-family="sans-serif" font-weight="bold" stroke-width=".62509">70.1 ºF</tspan></text><text id="sensor.baby_room_temp_humidity" transform="matrix(.78783 -.43451 .82423 .81473 0 0)" x="570.1781" y="608.65179" fill="#ffffff" font-size="17.006px" stroke-width=".6377" text-align="center" style="paint-order:markers fill stroke" xml:space="preserve"><tspan id="tspan7461" x="570.1781" y="608.65179" fill="#ffffff" font-family="sans-serif" font-weight="bold" stroke-width=".6377">23.6 %</tspan></text><text id="sensor.upstairs_thermostat_indoor_temperature" transform="matrix(1.015 -.50754 .024664 .97287 0 0)" x="743.90759" y="608.23334" fill="#0073da" font-size="16.669px" stroke-width=".62509" text-align="center" style="paint-order:markers fill stroke" xml:space="preserve"><tspan id="tspan468" x="743.90759" y="608.23334" fill="#0073da" font-family="sans-serif" font-weight="bold" stroke-width=".62509">Indoor: 70.1 ºF</tspan></text><text id="sensor.upstairs_thermostat_target_temperature" transform="matrix(1.0155 -.50455 .023654 .97302 0 0)" x="744.67529" y="585.17499" fill="#0073da" font-size="16.669px" stroke-width=".62509" text-align="center" style="paint-order:markers fill stroke" xml:space="preserve"><tspan id="tspan472" x="744.67529" y="585.17499" fill="#0073da" font-family="sans-serif" font-weight="bold" stroke-width=".62509">Target: 70.1 ºF</tspan></text><text id="sensor.main_floor_thermostat_indoor_temperature" transform="matrix(1.0444 -.61104 -.03002 .97504 0 0)" x="1011.0498" y="1026.519" fill="#0072eb" font-size="16.669px" stroke-width=".62509" text-align="center" style="paint-order:markers fill stroke" xml:space="preserve"><tspan id="tspan1034" x="1011.0498" y="1026.519" fill="#0072eb" font-family="sans-serif" font-weight="bold" stroke-width=".62509">Indoor: 70.1 ºF</tspan></text><text id="sensor.main_floor_thermostat_target_temperature" transform="matrix(1.0444 -.61104 -.03002 .97504 0 0)" x="1011.1732" y="1005.203" fill="#0072eb" font-size="16.669px" stroke-width=".62509" text-align="center" style="paint-order:markers fill stroke" xml:space="preserve"><tspan id="tspan1038" x="1011.1732" y="1005.203" fill="#0072eb" font-family="sans-serif" font-weight="bold" stroke-width=".62509">Target: 70.1 ºF</tspan></text></g></svg>
